<svg xmlns="http://www.w3.org/2000/svg" width="20.979" height="19.23" viewBox="0 0 20.979 19.23">
  <g id="checkmark" transform="translate(0 -0.008)">
    <path id="Caminho_354" data-name="Caminho 354" d="M9.615,19.239A9.615,9.615,0,1,1,14.8,1.528a.656.656,0,0,1-.709,1.1,8.3,8.3,0,1,0,3.826,6.991c0-.274-.013-.545-.038-.811a.656.656,0,1,1,1.305-.127q.044.463.044.938a9.626,9.626,0,0,1-9.615,9.615Zm0,0"/>
    <path id="Caminho_355" data-name="Caminho 355" d="M153.929,32.274a.651.651,0,0,1-.463-.192l-3.934-3.934a.656.656,0,0,1,.927-.928l3.47,3.47,9.151-9.151a.656.656,0,0,1,.928.927l-9.615,9.615A.657.657,0,0,1,153.929,32.274Zm0,0" transform="translate(-143.221 -20.465)"/>
  </g>
</svg>
