<svg xmlns="http://www.w3.org/2000/svg" width="506.699" height="347.543" viewBox="0 0 506.699 347.543">
  <defs>
    <style>
      .cls-1 {
        fill: #3f3d56;
      }

      .cls-2 {
        fill: #fff;
      }

      .cls-3, .cls-4 {
        fill: #2e778f;
      }

      .cls-3 {
        stroke: #2e778f;
      }

      .cls-5 {
        fill: #f0f0f0;
      }

      .cls-6 {
        fill: #bcbcbc;
      }

      .cls-7 {
        fill: #f2f2f2;
      }

      .cls-8 {
        fill: #2f2e41;
      }

      .cls-9 {
        fill: #ffb8b8;
      }
    </style>
  </defs>
  <g id="home-desktop-ilustration" transform="translate(0 0)">
    <ellipse id="Elipse_1" data-name="Elipse 1" class="cls-1" cx="61.208" cy="14.929" rx="61.208" ry="14.929" transform="translate(384.284 317.686)"/>
    <path id="Caminho_1" data-name="Caminho 1" class="cls-2" d="M484.926,160.757V358.318a8.877,8.877,0,0,1-8.877,8.873H395.843a8.862,8.862,0,0,1-8.877-8.873V160.757a8.877,8.877,0,0,1,8.877-8.877h12v1.54a7.309,7.309,0,0,0,7.309,7.309h40.791a7.309,7.309,0,0,0,7.309-7.309v-1.54h12.792A8.874,8.874,0,0,1,484.926,160.757Z" transform="translate(-235.939 -109.553)"/>
    <rect id="Retângulo_2" data-name="Retângulo 2" class="cls-1" width="90.925" height="44.286" transform="translate(154.492 67.788)"/>
    <path id="Caminho_2" data-name="Caminho 2" class="cls-3" d="M466.887,261.56c2.38,8.8,10.533,14.248,10.533,14.248s4.294-8.816,1.913-17.615S468.8,243.945,468.8,243.945,464.507,252.762,466.887,261.56Z" transform="translate(-276.181 -164.332)"/>
    <path id="Caminho_3" data-name="Caminho 3" class="cls-2" d="M458.163,268.585c6.531,6.358,7.329,16.131,7.329,16.131s-9.791-.535-16.323-6.893-7.329-16.132-7.329-16.132S451.632,262.226,458.163,268.585Z" transform="translate(-263.498 -173.871)"/>
    <path id="Caminho_4" data-name="Caminho 4" class="cls-2" d="M497.835,261.56c-2.38,8.8-10.533,14.248-10.533,14.248s-4.294-8.816-1.913-17.615,10.533-14.248,10.533-14.248S500.215,252.762,497.835,261.56Z" transform="translate(-285.976 -164.332)"/>
    <path id="Caminho_5" data-name="Caminho 5" class="cls-4" d="M496.7,268.585c-6.531,6.358-7.329,16.131-7.329,16.131s9.792-.535,16.323-6.893,7.329-16.132,7.329-16.132S503.229,262.226,496.7,268.585Z" transform="translate(-288.683 -173.871)"/>
    <rect id="Retângulo_3" data-name="Retângulo 3" class="cls-5" width="74.66" height="4.098" transform="translate(162.496 131.488)"/>
    <rect id="Retângulo_4" data-name="Retângulo 4" class="cls-5" width="74.66" height="4.098" transform="translate(162.496 137.498)"/>
    <rect id="Retângulo_5" data-name="Retângulo 5" class="cls-5" width="74.66" height="4.098" transform="translate(162.496 143.509)"/>
    <rect id="Retângulo_6" data-name="Retângulo 6" class="cls-5" width="74.66" height="4.098" transform="translate(162.496 149.521)"/>
    <rect id="Retângulo_7" data-name="Retângulo 7" class="cls-5" width="20.38" height="20.38" transform="matrix(0.815, 0.579, -0.579, 0.815, 197.09, 169.774)"/>
    <path id="Caminho_6" data-name="Caminho 6" class="cls-1" d="M485.188,500.355a4.7,4.7,0,1,1,4.7-4.7A4.7,4.7,0,0,1,485.188,500.355Zm0-8.622a3.919,3.919,0,1,0,3.919,3.919,3.919,3.919,0,0,0-3.919-3.919Z" transform="translate(-283.664 -299.08)"/>
    <path id="Caminho_7" data-name="Caminho 7" class="cls-6" d="M160.444,75.7V273.26a8.877,8.877,0,0,1-8.877,8.873H71.362a8.861,8.861,0,0,1-8.877-8.873V75.7a8.877,8.877,0,0,1,8.877-8.877h12v1.54a7.309,7.309,0,0,0,7.309,7.309h40.791a7.309,7.309,0,0,0,7.309-7.309v-1.54h12.792a8.874,8.874,0,0,1,8.877,8.877Z" transform="translate(-62.485 -66.822)"/>
    <path id="Caminho_8" data-name="Caminho 8" class="cls-1" d="M159.762,212.78H81.379V142.627h78.383ZM82.163,212h76.816V143.411H82.163Z" transform="translate(-71.977 -104.905)"/>
    <rect id="Retângulo_8" data-name="Retângulo 8" class="cls-1" width="0.784" height="104.085" transform="translate(9.532 38.406) rotate(-48.206)"/>
    <rect id="Retângulo_9" data-name="Retângulo 9" class="cls-1" width="104.085" height="0.784" transform="translate(9.532 107.191) rotate(-41.794)"/>
    <rect id="Retângulo_10" data-name="Retângulo 10" class="cls-1" width="77.599" height="0.784" transform="translate(9.794 116.86)"/>
    <rect id="Retângulo_11" data-name="Retângulo 11" class="cls-1" width="77.599" height="0.784" transform="translate(9.794 123.287)"/>
    <rect id="Retângulo_12" data-name="Retângulo 12" class="cls-1" width="77.599" height="0.784" transform="translate(9.794 129.715)"/>
    <rect id="Retângulo_13" data-name="Retângulo 13" class="cls-1" width="38.8" height="0.784" transform="translate(9.794 136.143)"/>
    <rect id="Retângulo_14" data-name="Retângulo 14" class="cls-1" width="38.8" height="0.784" transform="translate(9.794 142.57)"/>
    <path id="Caminho_9" data-name="Caminho 9" class="cls-7" d="M808.62,75.7V273.26a8.877,8.877,0,0,1-8.877,8.873H719.537a8.862,8.862,0,0,1-8.877-8.873V75.7a8.877,8.877,0,0,1,8.877-8.877h12v1.54a7.309,7.309,0,0,0,7.309,7.309h40.791a7.309,7.309,0,0,0,7.309-7.309v-1.54h12.792A8.874,8.874,0,0,1,808.62,75.7Z" transform="translate(-408.973 -66.822)"/>
    <rect id="Retângulo_15" data-name="Retângulo 15" class="cls-1" width="77.599" height="0.784" transform="translate(312.541 92.22)"/>
    <rect id="Retângulo_16" data-name="Retângulo 16" class="cls-1" width="77.599" height="0.784" transform="translate(312.541 110.789)"/>
    <rect id="Retângulo_17" data-name="Retângulo 17" class="cls-1" width="77.599" height="0.784" transform="translate(312.541 129.358)"/>
    <circle id="Elipse_2" data-name="Elipse 2" class="cls-2" cx="12.74" cy="12.74" r="12.74" transform="translate(337.305 45.978)"/>
    <rect id="Retângulo_18" data-name="Retângulo 18" class="cls-2" width="5.487" height="12.541" transform="translate(370.251 88.729)"/>
    <rect id="Retângulo_19" data-name="Retângulo 19" class="cls-2" width="5.487" height="12.541" transform="translate(324.619 106.885)"/>
    <rect id="Retângulo_20" data-name="Retângulo 20" class="cls-2" width="5.487" height="12.541" transform="translate(355.041 125.04)"/>
    <path id="Caminho_10" data-name="Caminho 10" class="cls-1" d="M793.262,181.855a15.677,15.677,0,1,1,15.677-15.677A15.677,15.677,0,0,1,793.262,181.855Zm0-30.569a14.893,14.893,0,1,0,14.893,14.893,14.893,14.893,0,0,0-14.893-14.893Z" transform="translate(-441.704 -108.861)"/>
    <rect id="Retângulo_21" data-name="Retângulo 21" class="cls-1" width="0.995" height="49.392" transform="translate(101.722 94.045) rotate(-39.546)"/>
    <path id="Caminho_11" data-name="Caminho 11" class="cls-1" d="M341.577,351.909a30.079,30.079,0,0,0-9.066-3.546l4.74-1.693,2.559-4.333A30.045,30.045,0,0,0,341.577,351.909Z" transform="translate(-205.361 -217.703)"/>
    <rect id="Retângulo_22" data-name="Retângulo 22" class="cls-1" width="49.393" height="0.996" transform="translate(264.386 131.503) rotate(-50.466)"/>
    <path id="Caminho_12" data-name="Caminho 12" class="cls-1" d="M618.506,351.908a30.076,30.076,0,0,0,1.766-9.573l2.56,4.334,4.739,1.693A30.049,30.049,0,0,0,618.506,351.908Z" transform="translate(-356.686 -217.703)"/>
    <path id="Caminho_13" data-name="Caminho 13" class="cls-8" d="M1022.754,440.157s0,72.653-11.445,99.027L984.934,598.4s-16.919-1-17.914-7.962l19.9-61.705,11.943-36.326,2.986-56.729Z" transform="translate(-545.164 -285.94)"/>
    <path id="Caminho_14" data-name="Caminho 14" class="cls-8" d="M1000.769,446.668l-4.479,30.355,2.986,66.681,1.493,36.824s5.972,16.422,3.981,17.914l-3.981,2.986s-15.924-1.991-16.422-2.986-9.953-76.136-9.953-76.136S954.987,461.6,955.983,460.6s5.474-15.924,5.474-15.924Z" transform="translate(-539.6 -290.461)"/>
    <path id="Caminho_15" data-name="Caminho 15" class="cls-8" d="M1038.851,749.678l1.99,11.445s5.474,23.388,0,23.388-15.426-6.469-15.924-10.45,1-21.9,1-21.9Z" transform="translate(-574.199 -443.686)"/>
    <path id="Caminho_16" data-name="Caminho 16" class="cls-8" d="M978.911,752.541s3.981,7.962,6.469,8.957S999.2,769,992.538,773.213s-13.627.228-13.627.228L956.02,761s2.986-12.441,7.464-13.436S978.911,752.541,978.911,752.541Z" transform="translate(-539.637 -442.569)"/>
    <circle id="Elipse_3" data-name="Elipse 3" class="cls-9" cx="17.914" cy="17.914" r="17.914" transform="translate(416.38 42.226)"/>
    <path id="Caminho_17" data-name="Caminho 17" class="cls-9" d="M1004.717,190.678s3.483,22.891,6.967,25.876-7.464,13.436-12.441,12.938-10.45-11.445-10.45-11.445,1.493-14.431-1-18.412S1004.717,190.678,1004.717,190.678Z" transform="translate(-555.491 -135.129)"/>
    <path id="Caminho_18" data-name="Caminho 18" class="cls-1" d="M989.4,241.8l8.45-7.8a31.991,31.991,0,0,0,9.96,8.3c6.469,3.483-12.441,39.312-12.441,39.312l-30.355-37.819s9.655-6.418,12.789-8.931Z" transform="translate(-544.156 -159.237)"/>
    <path id="Caminho_19" data-name="Caminho 19" class="cls-1" d="M981.936,279.6s13.336-23.249,11.893-30.783c0,0,19.457,4.906,20.452,11.375s-9.455,29.857-9.455,29.857,8.46,59.217,3.483,59.715-54.738,1-55.734-1.493,1-9.952-1.99-12.441-6.469-1-4.976-4.976,7.962-8.957,5.972-11.943-2.488-1.991-1.991-3.981-1-28.364-1-28.364-10.45-28.862-7.962-30.853,15.54-6.9,15.54-6.9Z" transform="translate(-531.715 -169.189)"/>
    <path id="Caminho_20" data-name="Caminho 20" class="cls-9" d="M1090.531,463.161s-1.493,19.9-9.952,18.91,1.493-22.393,1.493-22.393Z" transform="translate(-600.501 -282.601)"/>
    <path id="Caminho_21" data-name="Caminho 21" class="cls-9" d="M955.015,460.152S958,472.095,961.484,471.1V457.166l-1.493-2.488Z" transform="translate(-539.132 -279.558)"/>
    <path id="Caminho_22" data-name="Caminho 22" class="cls-8" d="M982.766,167.947a3.094,3.094,0,0,0-.511-1.441,2.335,2.335,0,0,0-1.089-.69,4.893,4.893,0,0,0-5.831,2.5c-.459,1-.68,2.292-1.688,2.739-1.172.519-2.471-.586-2.931-1.781s-.473-2.551-1.086-3.676a5.364,5.364,0,0,0-3.685-2.435c-1.232-.261-2.739-.4-3.295-1.528a3.023,3.023,0,0,1-.225-1.366,14.412,14.412,0,0,1,.889-4.873c-4.875-.974-9.212,3.784-14.182,3.861a3.745,3.745,0,0,1-1.829-.358,4.7,4.7,0,0,1-1.915-3.1q-.529-1.921-.871-3.887l1.59.73a6.244,6.244,0,0,1-.709-2.743,6.564,6.564,0,0,1,2.447.207l.116-2.853c1.23,1.56,3.682,1.011,5.533.289a71.647,71.647,0,0,1,10.873-3.706,19.243,19.243,0,0,1,11.311.6c3.725,1.535,6.6,4.588,9.126,7.724a20.181,20.181,0,0,1,3.515,5.666,13.732,13.732,0,0,1-.03,8.759A17.261,17.261,0,0,1,983.915,174C983.2,172.188,983.1,169.881,982.766,167.947Z" transform="translate(-533.859 -105.229)"/>
    <path id="Caminho_23" data-name="Caminho 23" class="cls-1" d="M937.944,259.678l-6.469,1.493s-7.464,7.962-7.962,15.426-.5,44.786-.5,44.786l9.455,30.853s-1,6.967,0,6.967,1.493-1.493,1.493.5-2.488,0,0,1.991l4.976,3.981,8.317-11.026s.641-4.4-.852-5.4-1.493-1.493-1-2.986,1.493-1.99,1-2.986-1.991-2.488-1.991-3.483a3.729,3.729,0,0,0-.5-2.488c-.5-.5-3.981-12.441-3.981-12.441l1.991-38.815Z" transform="translate(-523.056 -175.493)"/>
    <path id="Caminho_24" data-name="Caminho 24" class="cls-1" d="M1070.479,264.678l4.976,2.488s7.962,23.886,7.962,44.786,1.493,34.834,1.493,34.834,2.488,5.971,1.493,5.971-1.99,0-1,1.493,1.493,1,1,2.488-1-1-.5,1.493,0,3.483-1,3.483-1,6.469-1,6.469l-11.943-4.479s1.99-2.488,1.493-3.483a4.958,4.958,0,0,1-.5-1.99s2.488-.5,0-1.493-1.493-1-1-3.981,1.99-2.488.5-2.986-10.45-46.777-10.45-46.777Z" transform="translate(-592.889 -178.202)"/>
    <circle id="Elipse_4" data-name="Elipse 4" class="cls-8" cx="1.493" cy="1.493" r="1.493" transform="translate(443.742 81.648)"/>
    <circle id="Elipse_5" data-name="Elipse 5" class="cls-8" cx="1.493" cy="1.493" r="1.493" transform="translate(443.742 86.18)"/>
  </g>
</svg>
