<svg xmlns="http://www.w3.org/2000/svg" xmlns:xlink="http://www.w3.org/1999/xlink" width="341.693" height="258.203" viewBox="0 0 341.693 258.203">
  <defs>
    <style>
      .cls-1, .cls-7 {
        fill: #afafaf;
      }

      .cls-1, .cls-14, .cls-6 {
        opacity: 0.1;
      }

      .cls-2 {
        fill: url(#linear-gradient);
      }

      .cls-3 {
        fill: #d38884;
      }

      .cls-4 {
        fill: #444053;
      }

      .cls-5 {
        fill: #b07473;
      }

      .cls-8 {
        fill: #67647e;
      }

      .cls-9 {
        fill: #585268;
      }

      .cls-10 {
        fill: #e1e7ef;
      }

      .cls-11 {
        fill: url(#linear-gradient-2);
      }

      .cls-12 {
        fill: #a27772;
      }

      .cls-13 {
        fill: #cc818c;
      }

      .cls-15 {
        fill: #f6f8fb;
      }

      .cls-16 {
        fill: url(#linear-gradient-3);
      }

      .cls-17 {
        fill: #65617d;
      }

      .cls-18 {
        fill: #fbbebe;
      }

      .cls-19, .cls-26 {
        opacity: 0.05;
      }

      .cls-20 {
        fill: #7c5c5c;
      }

      .cls-21 {
        fill: url(#linear-gradient-4);
      }

      .cls-22 {
        fill: #fdc2cc;
      }

      .cls-23 {
        fill: #d39999;
      }

      .cls-24 {
        fill: #7e5659;
      }

      .cls-25 {
        fill: #865a61;
      }

      .cls-27 {
        fill: url(#linear-gradient-5);
      }

      .cls-28 {
        fill: #fff;
        opacity: 0.5;
      }

      .cls-29 {
        fill: #3f2b3b;
      }

      .cls-30 {
        fill: none;
        stroke: #3f2b3b;
        stroke-miterlimit: 10;
      }

      .cls-31 {
        fill: #a8a8a8;
      }

      .cls-32 {
        opacity: 0.2;
      }
    </style>
    <linearGradient id="linear-gradient" x1="0.5" y1="1" x2="0.5" gradientUnits="objectBoundingBox">
      <stop offset="0" stop-color="gray" stop-opacity="0.251"/>
      <stop offset="0.54" stop-color="gray" stop-opacity="0.122"/>
      <stop offset="1" stop-color="gray" stop-opacity="0.102"/>
    </linearGradient>
    <linearGradient id="linear-gradient-2" x1="0.5" x2="0.5" y2="0" xlink:href="#linear-gradient"/>
    <linearGradient id="linear-gradient-3" x1="0.5" x2="0.5" y2="0" xlink:href="#linear-gradient"/>
    <linearGradient id="linear-gradient-4" x1="1.096" x2="1.096" y2="0" xlink:href="#linear-gradient"/>
    <linearGradient id="linear-gradient-5" x1="0.5" x2="0.5" y2="0" xlink:href="#linear-gradient"/>
  </defs>
  <g id="mobile-ilustration2" transform="translate(0.013 -0.004)">
    <path id="Caminho_356" data-name="Caminho 356" class="cls-1" d="M43.44,426.65c5.406,21.069,16.852,39.281,34.941,48.108,37.608,18.348,122.373,8.884,185.645-1.976,32.737-5.619,61.491-21.114,82.392-42.948Z" transform="translate(-39.761 -304.557)"/>
    <path id="Caminho_357" data-name="Caminho 357" class="cls-1" d="M395.6,43.065H360.889a2.748,2.748,0,1,1,0-5.472H366.9a2.747,2.747,0,1,1,0-5.469H362.61a2.888,2.888,0,0,1-3-2.736,2.886,2.886,0,0,1,3-2.736h18.119A51.336,51.336,0,0,0,366.6,23.1c-49.409-5.788-67.051-1.961-73.283,1.976a72.715,72.715,0,0,1-25.394,10.148c-30.484,5.733-87.495,12.632-139.168-2.21-25.682-7.373-44.768,5.106-56.211,25.922H401.633a45.287,45.287,0,0,0-4.076-16.54A3.148,3.148,0,0,1,395.6,43.065Z" transform="translate(-60.121 -20.14)"/>
    <path id="Caminho_358" data-name="Caminho 358" class="cls-1" d="M31.893,280.23a127.325,127.325,0,0,0,1.349,36.758l304.807,10.163a130.094,130.094,0,0,0,21.177-29.433ZM152.44,306.453h-6.007a2.747,2.747,0,1,1,0,5.469h-34.7a2.747,2.747,0,1,1,0-5.469h6.007a2.748,2.748,0,1,1,0-5.472h-4.292a2.747,2.747,0,1,1,0-5.469h34.716a2.747,2.747,0,1,1,0,5.469h4.277a2.748,2.748,0,1,1,0,5.472Z" transform="translate(-31.16 -202.112)"/>
    <path id="Caminho_359" data-name="Caminho 359" class="cls-1" d="M374.529,149.94,41.754,157.319a111.77,111.77,0,0,0-7.974,31.331H368.7a119.833,119.833,0,0,0,4.835-19.969A86.5,86.5,0,0,0,374.529,149.94ZM101.347,174.12H95.34a2.748,2.748,0,1,1,0,5.472H60.627a2.748,2.748,0,1,1,0-5.472h6.007a2.747,2.747,0,1,1,0-5.469H62.342a2.748,2.748,0,1,1,0-5.472H97.058a2.748,2.748,0,1,1,0,5.472h4.289a2.747,2.747,0,1,1,0,5.469Z" transform="translate(-33.002 -110.953)"/>
    <ellipse id="Elipse_41" data-name="Elipse 41" class="cls-1" cx="22.594" cy="5.073" rx="22.594" ry="5.073" transform="translate(176.923 220.166)"/>
    <ellipse id="Elipse_42" data-name="Elipse 42" class="cls-1" cx="40.762" cy="3.346" rx="40.762" ry="3.346" transform="translate(211.258 238.003)"/>
    <ellipse id="Elipse_43" data-name="Elipse 43" class="cls-1" cx="40.762" cy="5.073" rx="40.762" ry="5.073" transform="translate(47.595 231.203)"/>
    <ellipse id="Elipse_44" data-name="Elipse 44" class="cls-1" cx="30.671" cy="5.073" rx="30.671" ry="5.073" transform="translate(119.835 205.81)"/>
    <ellipse id="Elipse_45" data-name="Elipse 45" class="cls-1" cx="24.553" cy="5.073" rx="24.553" ry="5.073" transform="translate(134.515 248.061)"/>
    <path id="Caminho_360" data-name="Caminho 360" class="cls-2" d="M470.74,193.723c-.649-4.367-4.616-14.557-4.616-14.557h0q-.1-.45-.234-.9c-2.814-9.671-6.71-10.512-6.71-10.512l-13.954-3a1.081,1.081,0,0,1,.3.279,1.935,1.935,0,0,0-.219.033,5.467,5.467,0,0,1-1.222-2.643c-.027-.144-.051-.3-.069-.447a9.815,9.815,0,0,0-.8-14.756c-.147-.114-.3-.225-.448-.33a2.224,2.224,0,0,0,.186-2.646,9.223,9.223,0,0,0-5.947-4.433,10.081,10.081,0,0,0-5.772-.123,20.855,20.855,0,0,0-3.021,1.4c-1.853.925-3.9,1.658-5.289,3.181a1.552,1.552,0,0,0-.529,1.276,3.445,3.445,0,0,0,.526.928,2.8,2.8,0,0,1,.027,2.325,22.529,22.529,0,0,0-.862,2.235,2.336,2.336,0,0,0,.466,2.244,9.88,9.88,0,0,0,.871.6,4.569,4.569,0,0,1,.832.934q.829,1.111,1.652,2.232a22.986,22.986,0,0,1,2.069,3.145,15.324,15.324,0,0,0,1.279,2.4,3.564,3.564,0,0,0,.55.577l-.162-.063a2.5,2.5,0,0,0,1.835.748h.084a.5.5,0,0,0,.336-.138v.3c.033,1.072.027,2.213-.048,3.286l-.129-.066a1.126,1.126,0,0,0-1.2.126l-12.845,10.308s-2.793,3.82-2.4,10.416l-2.253,9.89s-2.814,8.391-.649,14.383,3.421,9.419,3.421,9.419.865,6.809,2.165,7.364,1.862.856,1.862.856l.258,1.628h0s.087.159.24.426c.946,1.646,4.451,7.454,6.487,6.833a26.042,26.042,0,0,1,.33,4.772l2.015,13.53s1.406,3.679,1.318,5.607,1.64,4.676,1.64,4.676a8.935,8.935,0,0,0-.865,6.292c.823,3.6,1.862,20.207,1.862,20.207l1.5,4.025-.042,4.718a4.5,4.5,0,0,1-.931,2.1c-.973,1.057-.9,2.28-3.247,3.724s-3.832,1.991-3.832,3.9a5.024,5.024,0,0,1-.072.8c-.216,1.406-.637,2.168,3.676,2.577a11.371,11.371,0,0,0,8.446-2.823s.745-1.352,4.253-1.9c0,0,1.2-.063,1.264-1.123.024-.366.018-1.066,0-1.838a11.31,11.31,0,0,0-.384-3.268,7.124,7.124,0,0,1-.784-2.117h.976s.9-6.809,0-11.218a18.2,18.2,0,0,1-.087-7.535l-.174-11.644a3.327,3.327,0,0,1-.258-3.556c.943-2.271,0-13.485,0-13.485s.348-4.025,1.343-4.968.048-5.9,0-6.154l1.772,5.944s.778,11.815,2.427,13.954l.475,5.352s3.376,4.926,2.727,7.578.694,12.245.694,12.245v9.806s-1.517,3.937.6,5.352l.9-.036c-.3.279-.532.7-.883,1.063-.405.417-.637,2.006-.766,3.373-.108,1.156-.144,2.15-.144,2.15a3.541,3.541,0,0,0,2.6,1.541c1.7.1,7.289,4.352,7.289,4.352a66.139,66.139,0,0,0,6.953-.3l.084-.021a1.877,1.877,0,0,0,1.078-.88,2.252,2.252,0,0,0,.258-1.619,4.042,4.042,0,0,0-2.331-2.556c-3.691-1.946-4.241-3.769-4.241-3.769l-2.424-3.637h.345a15.558,15.558,0,0,1,2.424-8.178l-.171-19.05s1.081-6.55-.778-10.106c0,0-.153-3.766,1.09-4.923s-1.655-12.842-1.655-12.842-.6-6.274-1.306-12h0c2.922,2.772,5.953-7.208,6.463-8.983h.075l-.033-.129c.021-.084.033-.126.033-.126h0s-.649-2.307-.174-1.838,1.646-1.285,1.646-1.285-.174-9.548,1.862-14.359S470.74,193.723,470.74,193.723Zm-8.71,6.076.015-.027c.3,5.83-.057,18.27-.057,18.27s-.4,1.595-.832,3.472l-.3-11.818h0l-.3-11.134Zm-37.275-4.019s1.472,18.408,0,21.063a13.906,13.906,0,0,0-1.06,3.637c-.487-1.276-1.517-4.274-1.147-5.863.478-2.054-.952-7.451-.952-7.578a12.8,12.8,0,0,1,.9-5.2c1.03-2.2.354-3.151.354-3.151S423.716,195.083,424.755,195.78Z" transform="translate(-297.316 -103.519)"/>
    <path id="Caminho_361" data-name="Caminho 361" class="cls-3" d="M449.329,444.048c-1.282,5.637-6.382-2.886-7.544-4.932-.15-.267-.234-.423-.234-.423l.553-2.592,2.922-1.2a8.16,8.16,0,0,1,1.309.853A7.9,7.9,0,0,1,449.329,444.048Z" transform="translate(-318.303 -310.329)"/>
    <path id="Caminho_362" data-name="Caminho 362" class="cls-3" d="M579.6,431.285a.393.393,0,0,1-.033.126.64.64,0,0,1-.039.135c-.5,1.76-3.475,11.668-6.346,8.917-3.142-3-1.616-9.947-1.616-9.947h.021l6.607-.676,1.309,1.346h0Z" transform="translate(-409.012 -306.789)"/>
    <path id="Caminho_363" data-name="Caminho 363" class="cls-4" d="M492.3,481.822l.168,18.921a15.519,15.519,0,0,0-2.379,8.109l-8.542.336c-2.084-1.4-.6-5.31-.6-5.31v-9.743s-1.318-9.518-.682-12.155-2.676-7.508-2.676-7.508l-.469-5.313c-1.616-2.123-2.382-13.852-2.382-13.852L473,449.385c.048.255.949,5.2,0,6.109s-1.318,4.929-1.318,4.929.934,11.137,0,13.386a3.314,3.314,0,0,0,.252,3.529l.171,11.56a18.077,18.077,0,0,0,.084,7.478c.892,4.376,0,11.137,0,11.137h-9.163l.042-4.718-1.484-3.994s-1.021-16.489-1.829-20.06a8.962,8.962,0,0,1,.847-6.247s-1.7-2.718-1.613-4.631-1.309-5.562-1.309-5.562l-1.976-13.428a26.086,26.086,0,0,0-.979-7.65c-1.147-3.826-2.847-8.842-2.847-8.842l1.919.171,9.683.862s23.544-1.583,24.6-.267a4.419,4.419,0,0,1,.444,1.373c1.057,4.748,2.454,19.624,2.454,19.624s2.847,11.6,1.625,12.749-1.072,4.883-1.072,4.883C493.363,475.3,492.3,481.822,492.3,481.822Z" transform="translate(-325.531 -308.566)"/>
    <path id="Caminho_364" data-name="Caminho 364" class="cls-5" d="M479.574,685.462c-.066,1.054-1.24,1.117-1.24,1.117-3.442.541-4.175,1.88-4.175,1.88a11.055,11.055,0,0,1-8.286,2.805c-4.235-.408-3.823-1.162-3.6-2.559a5.291,5.291,0,0,0,.069-.787c0-1.913,1.466-2.457,3.76-3.9s2.232-2.646,3.187-3.7a5.858,5.858,0,0,0,1.054-3.09c1.081-1.883,3.823.3,3.823.3.129.667,4.2.574,4.2.574a8.975,8.975,0,0,0,.82,2.295,11.279,11.279,0,0,1,.375,3.244C479.592,684.4,479.6,685.1,479.574,685.462Z" transform="translate(-332.712 -479.34)"/>
    <path id="Caminho_365" data-name="Caminho 365" class="cls-6" d="M479.574,702.2c-.066,1.054-1.24,1.117-1.24,1.117-3.442.541-4.175,1.88-4.175,1.88A11.055,11.055,0,0,1,465.873,708c-4.235-.408-3.823-1.162-3.6-2.559,1.892.469,5.508,1.123,7.62-.024,2.934-1.592,5.04-2.7,5.04-2.7l4.637-2.334C479.592,701.14,479.6,701.834,479.574,702.2Z" transform="translate(-332.712 -496.075)"/>
    <path id="Caminho_366" data-name="Caminho 366" class="cls-5" d="M565.431,693.968a1.832,1.832,0,0,1-1.057.874l-.081.021a63.7,63.7,0,0,1-6.824.3s-5.481-4.238-7.139-4.334a3.487,3.487,0,0,1-2.55-1.532s.033-.985.138-2.132c.129-1.357.354-2.934.754-3.349.733-.766.9-1.8,2.55-1.147,0,0,2.355-4.151,5.13-.943l2.871,4.355s.541,1.8,4.178,3.757a4.03,4.03,0,0,1,2.286,2.538A2.237,2.237,0,0,1,565.431,693.968Z" transform="translate(-392.628 -482.173)"/>
    <path id="Caminho_367" data-name="Caminho 367" class="cls-6" d="M565.431,709.473c-.324.273-.682.568-1.057.874l-.081.021a63.709,63.709,0,0,1-6.824.3s-5.481-4.238-7.139-4.334a3.486,3.486,0,0,1-2.55-1.532s.033-.985.138-2.132c1.688.5,4.244,1.4,4.929,2.358a20.887,20.887,0,0,0,4.244,3.5s5.953-.574,8.6-.652A2.237,2.237,0,0,1,565.431,709.473Z" transform="translate(-392.628 -497.677)"/>
    <path id="Caminho_368" data-name="Caminho 368" class="cls-3" d="M492.438,208.308l-7.839,8.286s-9.5-.7-7.842-3.5c.844-1.43.976-4.421.9-7.022-.069-2.508-.327-4.643-.327-4.643s13.323-6.631,12.314-.447a10.179,10.179,0,0,0-.036,3.529A4.625,4.625,0,0,0,492.438,208.308Z" transform="translate(-342.801 -144.817)"/>
    <path id="Caminho_369" data-name="Caminho 369" class="cls-6" d="M491.422,200.977a10.178,10.178,0,0,0-.036,3.529,9.779,9.779,0,0,1-6.974,2.91c-1.8,0-3.751-1.481-5.208-2.337-.069-2.511-.084-3.655-.084-3.655S492.443,194.793,491.422,200.977Z" transform="translate(-344.589 -144.817)"/>
    <path id="Caminho_370" data-name="Caminho 370" class="cls-3" d="M483.675,171.306a9.818,9.818,0,1,1-3.694-7.671A9.818,9.818,0,0,1,483.675,171.306Z" transform="translate(-334.037 -119.036)"/>
    <path id="Caminho_371" data-name="Caminho 371" class="cls-6" d="M491.988,434.9c-2.445,5.818-18.17,5.938-18.17,5.938V434.5l-.952-.063c.411,1.817-.577,6.247-.577,6.247-12.428,1.754-15.458-5.328-15.458-5.328l.432-2.424,9.683.862s23.543-1.583,24.6-.267A4.418,4.418,0,0,1,491.988,434.9Z" transform="translate(-328.994 -308.951)"/>
    <path id="Caminho_372" data-name="Caminho 372" class="cls-7" d="M473.817,296.4v-6.343l-.952-.06c.411,1.8-.577,6.247-.577,6.247-9.353,1.319-13.383-2.364-14.8-4.268a5.807,5.807,0,0,1-.655-1.057l3.8-21.354.9-31.427,1.361-5.514.315-2.646v-.03h.033l.967.414,5.788,2.5,6.574-4.965.1-.069.327-.249.544.435,1.352,1.084,4.334,27.989s7.509,21.549,8.914,30.247c.057.348.1.673.138.976C493.2,296.252,473.817,296.4,473.817,296.4Z" transform="translate(-328.994 -165.275)"/>
    <circle id="Elipse_46" data-name="Elipse 46" class="cls-8" cx="0.559" cy="0.559" r="0.559" transform="translate(141.141 67.648)"/>
    <circle id="Elipse_47" data-name="Elipse 47" class="cls-8" cx="0.559" cy="0.559" r="0.559" transform="translate(141.399 72.748)"/>
    <circle id="Elipse_48" data-name="Elipse 48" class="cls-8" cx="0.559" cy="0.559" r="0.559" transform="translate(141.958 81.004)"/>
    <circle id="Elipse_49" data-name="Elipse 49" class="cls-8" cx="0.559" cy="0.559" r="0.559" transform="translate(142.88 89.897)"/>
    <circle id="Elipse_50" data-name="Elipse 50" class="cls-8" cx="0.559" cy="0.559" r="0.559" transform="translate(143.439 98.246)"/>
    <circle id="Elipse_51" data-name="Elipse 51" class="cls-8" cx="0.559" cy="0.559" r="0.559" transform="translate(143.997 107.139)"/>
    <circle id="Elipse_52" data-name="Elipse 52" class="cls-8" cx="0.559" cy="0.559" r="0.559" transform="translate(143.775 115.936)"/>
    <path id="Caminho_373" data-name="Caminho 373" class="cls-6" d="M463.569,277.978s-.625,8.178-1.772,10.557-1.658,9.052-1.658,9.052l-2.664-.3a5.813,5.813,0,0,1-.655-1.057l3.8-21.354.9-31.427,1.364-5.517.315-2.646.036-.015a1.075,1.075,0,0,1,.949.015l.126.066q-.057.162-.108.333a51.051,51.051,0,0,0-1.427,9.247s1.5,10.965,1.658,16.065S463.569,277.978,463.569,277.978Z" transform="translate(-328.987 -170.583)"/>
    <path id="Caminho_374" data-name="Caminho 374" class="cls-6" d="M446.334,435.762a1.539,1.539,0,0,1-.1.2c-1.033,1.745-3.652,2.853-4.448,3.157-.15-.267-.234-.423-.234-.423l.553-2.592,2.922-1.2A8.17,8.17,0,0,1,446.334,435.762Z" transform="translate(-318.303 -310.329)"/>
    <path id="Caminho_375" data-name="Caminho 375" class="cls-8" d="M419.762,298.81l-2.424,1.445-2.207,9.818s-2.763,8.328-.64,14.278,3.358,9.356,3.358,9.356.85,6.758,2.126,7.31,1.826.85,1.826.85l.255,1.616s3.46-1.174,4.682-3.244-.9-7.208-.9-7.208-1.826-4.379-1.358-6.418-.937-7.394-.937-7.508a12.726,12.726,0,0,1,.9-5.166c1.027-2.189.342-3.124.342-3.124l-.64-6.247Z" transform="translate(-298.81 -215.112)"/>
    <path id="Caminho_376" data-name="Caminho 376" class="cls-6" d="M537.8,289.886s-6.418,2.421-8.458.3-1.829-12.071-1.829-12.071-1.952-18.36-3.187-21.375-.6-24.778-.6-24.778a13.188,13.188,0,0,0-1.553-3.55.785.785,0,0,0-.153-.123l.249.054.871.186,1.352,1.084,4.334,27.989s7.508,21.549,8.914,30.247Z" transform="translate(-374.605 -165.772)"/>
    <path id="Caminho_377" data-name="Caminho 377" class="cls-6" d="M580.45,431.526h-.072c-.808.105-7.938.967-7.968-.517a4.348,4.348,0,0,1,.027-.514l6.607-.676,1.309,1.346h0c.024.087.042.162.06.222Z" transform="translate(-409.861 -306.775)"/>
    <path id="Caminho_378" data-name="Caminho 378" class="cls-8" d="M573.607,266.07l4.685,2.445s3.9,10.109,4.529,14.443c0,0,2.892,11.611.9,16.386S581.9,313.6,581.9,313.6s-1.147,1.742-1.616,1.276.171,1.826.171,1.826-8.01,1.063-8.043-.511,1.838-9.094,1.838-9.094.511-17.891-.213-20.7S573.607,266.07,573.607,266.07Z" transform="translate(-409.86 -192.205)"/>
    <path id="Caminho_379" data-name="Caminho 379" class="cls-6" d="M520.94,329.52s-2.637,6.457-3.487,6.884.171,2.123.171,2.123S522.426,331.815,520.94,329.52Z" transform="translate(-371.173 -236.599)"/>
    <path id="Caminho_380" data-name="Caminho 380" class="cls-6" d="M515.027,254.092c.03-.123-3.145,3.114-3.995,3.6S514.135,257.666,515.027,254.092Z" transform="translate(-366.834 -183.822)"/>
    <path id="Caminho_381" data-name="Caminho 381" class="cls-6" d="M485.249,327.82s-4.844,3.133-4.2,4.373S485.249,327.82,485.249,327.82Z" transform="translate(-345.895 -235.409)"/>
    <path id="Caminho_382" data-name="Caminho 382" class="cls-6" d="M524.47,480.07a25.932,25.932,0,0,0,10.539,3.3Z" transform="translate(-376.319 -341.933)"/>
    <path id="Caminho_383" data-name="Caminho 383" class="cls-6" d="M491.5,501.3s3.823,4.805,5.568,4.929S491.5,501.3,491.5,501.3Z" transform="translate(-353.251 -356.786)"/>
    <path id="Caminho_384" data-name="Caminho 384" class="cls-6" d="M498.583,564c-.171.084-2.168,4.334-4.2,4.463S498.583,564,498.583,564Z" transform="translate(-354.98 -400.655)"/>
    <path id="Caminho_385" data-name="Caminho 385" class="cls-6" d="M568.33,594.707s3.79-.85,4.634,1.868C572.964,596.566,572.709,595.716,568.33,594.707Z" transform="translate(-407.006 -422.052)"/>
    <path id="Caminho_386" data-name="Caminho 386" class="cls-6" d="M559.84,645.988s4.592-.937,5.568.339S559.84,645.988,559.84,645.988Z" transform="translate(-401.066 -457.787)"/>
    <path id="Caminho_387" data-name="Caminho 387" class="cls-6" d="M506.085,654c0,.042-4.673.937-4.505,1.532s4.986.511,5.157-.426a.9.9,0,0,0-.652-1.105Z" transform="translate(-360.301 -463.625)"/>
    <path id="Caminho_388" data-name="Caminho 388" class="cls-6" d="M554.75,666.79s7.68-.937,7.208.679S554.75,666.79,554.75,666.79Z" transform="translate(-397.505 -472.385)"/>
    <path id="Caminho_389" data-name="Caminho 389" class="cls-6" d="M420.89,352.44c.042.126,5.058.808,5.736,2.424,0,0-4.929-2.3-5.706-2.3" transform="translate(-303.848 -252.635)"/>
    <path id="Caminho_390" data-name="Caminho 390" class="cls-6" d="M435.333,396.16s-4.166,1.318-3.868,3.3S431.041,398.545,435.333,396.16Z" transform="translate(-311.236 -283.224)"/>
    <path id="Caminho_391" data-name="Caminho 391" class="cls-6" d="M437.92,425.771s1.517-2.081,2.961-1.7S437.92,425.771,437.92,425.771Z" transform="translate(-315.763 -302.72)"/>
    <path id="Caminho_392" data-name="Caminho 392" class="cls-6" d="M480.014,163.631a2.363,2.363,0,0,1-.487.363c-1.2.7-1.532,1.778-2.1,3.021A6.426,6.426,0,0,1,475.236,170c-1.385.835-3.208.529-4.646,1.255a3.6,3.6,0,0,0-1.922,3.553,10.251,10.251,0,0,0,.408,1.628,11.608,11.608,0,0,1,.439,3.535.6.6,0,0,1,0,.105,9.815,9.815,0,1,1,10.512-16.45Z" transform="translate(-334.071 -119.031)"/>
    <path id="Caminho_393" data-name="Caminho 393" class="cls-9" d="M468.34,147.407a9.059,9.059,0,0,0-5.836-4.4,9.8,9.8,0,0,0-5.667-.12,20.789,20.789,0,0,0-2.964,1.391c-1.82.919-3.82,1.646-5.19,3.157a1.582,1.582,0,0,0-.52,1.267,3.538,3.538,0,0,0,.514.919,2.789,2.789,0,0,1,.027,2.31,21.193,21.193,0,0,0-.847,2.219,2.335,2.335,0,0,0,.457,2.226,8.321,8.321,0,0,0,.859.6,4.522,4.522,0,0,1,.814.925l1.622,2.216a22.48,22.48,0,0,1,2.03,3.121,14.874,14.874,0,0,0,1.255,2.382,2.718,2.718,0,0,0,2.277,1.216.441.441,0,0,0,.36-.171.475.475,0,0,0,.045-.225,11.527,11.527,0,0,0-.43-3.523,10.165,10.165,0,0,1-.408-1.628,3.619,3.619,0,0,1,1.922-3.553c1.442-.727,3.265-.42,4.646-1.252a6.383,6.383,0,0,0,2.189-3c.58-1.243.9-2.322,2.1-3.021A2.112,2.112,0,0,0,468.34,147.407Z" transform="translate(-322.652 -105.763)"/>
    <path id="Caminho_394" data-name="Caminho 394" class="cls-6" d="M501.63,693.06s1.5,1.913,1.111,3S501.63,693.06,501.63,693.06Z" transform="translate(-360.339 -490.954)"/>
    <path id="Caminho_395" data-name="Caminho 395" class="cls-6" d="M569.28,702.89s.333-2.565,1.67-2.589a4.472,4.472,0,0,1,2.424.255c1.021.393,1.979,1,1.673,1.093s-1.757-1.466-3.247-.67a10.728,10.728,0,0,0-2.52,1.91Z" transform="translate(-407.671 -495.996)"/>
    <path id="Caminho_396" data-name="Caminho 396" class="cls-6" d="M477.586,241.625l4.2-2.946s-6.151-3.634-6.884-3.124-1.237,5.106-1.237,5.106Z" transform="translate(-340.776 -170.821)"/>
    <path id="Caminho_397" data-name="Caminho 397" class="cls-10" d="M477.526,240.862l4.2-3s-6.151-3.634-6.884-3.124-1.237,5.358-1.237,5.358Z" transform="translate(-340.734 -170.247)"/>
    <path id="Caminho_398" data-name="Caminho 398" class="cls-7" d="M477.526,240.862l4.2-3s-6.151-3.634-6.884-3.124-1.237,5.358-1.237,5.358Z" transform="translate(-340.734 -170.247)"/>
    <path id="Caminho_399" data-name="Caminho 399" class="cls-8" d="M442.037,234.506l-.126-.063a1.09,1.09,0,0,0-1.18.123L428.116,244.8s-2.742,3.793-2.361,10.338l7.439,10.539s.85-3.568,1.868-2.889c0,0,1.445,18.276,0,20.91s-2.081,12.494-2.081,12.494l4.887.553s.511-6.674,1.658-9.052,1.772-10.557,1.772-10.557,1.033-11.881.862-16.981-1.658-16.065-1.658-16.065S440.919,237.659,442.037,234.506Z" transform="translate(-307.227 -169.993)"/>
    <path id="Caminho_400" data-name="Caminho 400" class="cls-6" d="M509.681,234.722l-5.241-1.94s6.674-7.31,7.508-3.256Z" transform="translate(-362.305 -165.78)"/>
    <path id="Caminho_401" data-name="Caminho 401" class="cls-10" d="M509.681,233.872l-5.241-1.94s6.674-7.31,7.508-3.256Z" transform="translate(-362.305 -165.185)"/>
    <path id="Caminho_402" data-name="Caminho 402" class="cls-7" d="M509.681,233.872l-5.241-1.94s6.674-7.31,7.508-3.256Z" transform="translate(-362.305 -165.185)"/>
    <path id="Caminho_403" data-name="Caminho 403" class="cls-6" d="M521.32,228.111a.3.3,0,0,1,.216.048Z" transform="translate(-374.115 -165.644)"/>
    <path id="Caminho_404" data-name="Caminho 404" class="cls-8" d="M523,226.418l13.906,3s3.826.85,6.589,10.455-3.784,21.372-3.784,21.372l-1.445-1.228.724,28.049s-6.418,2.421-8.458.3-1.826-12.08-1.826-12.08-1.955-18.357-3.19-21.375-.6-24.775-.6-24.775S523.781,226.249,523,226.418Z" transform="translate(-375.291 -164.458)"/>
    <path id="Caminho_405" data-name="Caminho 405" class="cls-6" d="M564.935,285.647c-.2.18-.424,8.668.426,15.128a82.442,82.442,0,0,0,2.4,11.644l-1.262-25.88S565.53,285.094,564.935,285.647Z" transform="translate(-404.503 -205.814)"/>
    <path id="Caminho_406" data-name="Caminho 406" class="cls-6" d="M559.7,261.6c.339.213,1.829,3.739,1.147,5.184S559.7,261.6,559.7,261.6Z" transform="translate(-400.968 -189.078)"/>
    <path id="Caminho_407" data-name="Caminho 407" class="cls-6" d="M485.768,151.332a7.676,7.676,0,0,0-3.057-3.2,7.271,7.271,0,0,1,2.292,2.7,2.136,2.136,0,0,1-.745,3.06c-1.168.658-1.532,1.778-2.1,3.021a6.53,6.53,0,0,1-2.192,3c-1.382.835-3.2.526-4.646,1.252a3.628,3.628,0,0,0-1.922,3.556,10.205,10.205,0,0,0,.411,1.625,11.617,11.617,0,0,1,.438,3.535.474.474,0,0,1-.048.225.429.429,0,0,1-.357.171,2.069,2.069,0,0,1-1.048-.2,2.439,2.439,0,0,0,1.8.706.354.354,0,0,0,.4-.4,11.525,11.525,0,0,0-.435-3.535,9.868,9.868,0,0,1-.411-1.628,3.619,3.619,0,0,1,1.922-3.553c1.442-.727,3.265-.42,4.646-1.252a6.383,6.383,0,0,0,2.189-3c.58-1.243.9-2.322,2.1-3.021A2.138,2.138,0,0,0,485.768,151.332Z" transform="translate(-340.161 -109.687)"/>
    <path id="Caminho_408" data-name="Caminho 408" class="cls-11" d="M664.485,205.133c-4.139-.081-7.791-3-9.86-6.574a6.607,6.607,0,0,1-1-2.814,3.248,3.248,0,0,1,.114-.673,6.981,6.981,0,0,0,.3-1.03,1.794,1.794,0,0,0,0-.42V193.6a2.485,2.485,0,0,0-.9-2.021c-.553-.52-1.246-.9-1.823-1.418-1.778-1.562-2.319-4.067-2.352-6.451v-.126c.021-1.021.1-2.045.093-3.066a12.9,12.9,0,0,0-.075-1.736,5.736,5.736,0,0,0-1.856-3.838c-2.961-2.4-7.941.1-11.007-2.171-.745-.556-1.349-1.376-2.253-1.592a3.794,3.794,0,0,0-2.057.279c-2.259.745-4.778,1.724-5.661,3.9-.5,1.252-.363,2.682-.826,3.949a19.732,19.732,0,0,1-1.291,2.385,3.734,3.734,0,0,0-.481,1.991,2.247,2.247,0,0,0,.147,1.06,2.7,2.7,0,0,0,.736,1.054,3.5,3.5,0,0,1-.438.7c-.577.706-1.463,1.2-2.063,1.9a4.5,4.5,0,0,0-.523,4.553c.547,1.514,1.535,2.892,2.216,4.367a2.344,2.344,0,0,1,.225,1.991,5.709,5.709,0,0,1-1,1.159,3.644,3.644,0,0,0-.9,2.012c-6.761,1.544-6.767,6.977-6.767,6.977h0l-3.652,9.184s-.586,1.547-1.273,3.589l-4.322-.775,3,5.028a15.873,15.873,0,0,0-.838,4.9s-1.342,6.307,1.045,7.409l5.268,2.37a3.119,3.119,0,0,0,.73.327l.213.1a.565.565,0,0,0,.493,0h.072a.709.709,0,0,0,.3-.045.6.6,0,0,0,.264-.285.092.092,0,0,1,0-.03l1.577-.457,1.336,1.583c.6.423,1.2.79,1.769,1.12L619.1,264.032s-.333,27.331-1.343,33.56a17.443,17.443,0,0,0-.234,4.95l-.039.066c.249,1.757.9,2.1.9,2.1v-.024a.194.194,0,0,0,.039.024,17.687,17.687,0,0,1,1.081-2.319v.451c-.021,2.319-.093,5.565-.333,7.677-.408,3.6,1.045,15.482,1.045,15.482l.5,10.812a10,10,0,0,1-1.231,5.268c-1.2,2.159-2.736,5.2-2.847,6.547a1.356,1.356,0,0,0,0,.219h0l-2.577,3.1s-1.006,1.556,1.267,2.183a12.17,12.17,0,0,0,5.025-.4,3.358,3.358,0,0,0,2.6-3.268,11.562,11.562,0,0,1,2.126-4.082l.423,2.49,2.835.7.363-6.824a3,3,0,0,0,.2-1.2h0c.559-4.853-1.315-4.418-1.315-4.418a.261.261,0,0,1,.09.168l-.09-.165h0c-1.15-2.271-.6-6.007-.6-6.007s1.5-10.812,2.015-13.668c.369-2.018.216-8.626.093-12.314a4.4,4.4,0,0,0-.015-.448c4.4-.057,9.785-.2,13.566-.571v.445l-.7,25.544a14.02,14.02,0,0,1-.979,4.751.26.26,0,0,1-.033.087,20.723,20.723,0,0,0-1.385,6.695l-.324,8.109v.225h0c-.565.216-1.457.844-1.481,2.664-.039,2.667,4.661,1.778,4.661,1.778,4.7,0,4.736-4.89,4.736-4.89s.147-4.484.372-7.484-.709-2.34-.709-2.34l-.072,8.536v-7.415l.072-1.084v-.03h0v-.231l.592-8.8s4.328-14.669,5-17.483c.478-2,.279-8.025.123-11.356a2.645,2.645,0,0,0-.024-.441c1.342-.12,2.529-.132,3-.132h.219s-.222-23.559-.784-32.437-1.454-17-3.691-19.447c-1.352-1.478-3.235-6.04-4.505-9.419a47.113,47.113,0,0,0,8.28,2.7c7.085,1.484,6.115-4.667,6.115-4.667l-.718-11.632h.048a59.309,59.309,0,0,0-.781-9.094,26.756,26.756,0,0,0-1.826-6.607c.769-.3,1.529-.622,2.274-.952,1.925-.85,4.094-2.054,4.37-4.13h-.093a2.672,2.672,0,0,0,.072-.457Zm-43.918,16.819h0c.015,1.2-.03,3.286-.1,5.589l-2.25-3,2.256-3.658ZM650.708,228.051Zm.937,4.544-3.748-1.2a16.816,16.816,0,0,1,2.316-2.865l.324-.3-.117.024.18-.165.108-.024-.171.165.2-.042a6.394,6.394,0,0,0,1.276,2.568c1.346,1.469-.369,1.841-.369,1.841Z" transform="translate(-433.321 -125.772)"/>
    <path id="Caminho_409" data-name="Caminho 409" class="cls-12" d="M642.243,715.66l-.438,8.313-2.8-.7-.589-3.457Z" transform="translate(-446.687 -500.717)"/>
    <path id="Caminho_410" data-name="Caminho 410" class="cls-6" d="M642.243,715.66l-.438,8.313-2.8-.7-.589-3.457Z" transform="translate(-446.687 -500.717)"/>
    <path id="Caminho_411" data-name="Caminho 411" class="cls-13" d="M716.48,643.59l4.265.883,3.163-2.793v-7.872l.072-1.075V632.7h0v-.228l.589-8.749s4.268-14.563,4.931-17.36c.469-1.982.273-7.965.117-11.272-.063-1.355-.117-2.262-.117-2.262l-9.416-2.279-.2,7.238-.688,25.361a14.053,14.053,0,0,1-.964,4.718l-.033.087a20.637,20.637,0,0,0-1.367,6.643l-.318,8.064v.222Z" transform="translate(-510.661 -419.231)"/>
    <path id="Caminho_412" data-name="Caminho 412" class="cls-6" d="M741.45,730.136v.222h0v-.228Z" transform="translate(-528.132 -516.89)"/>
    <path id="Caminho_413" data-name="Caminho 413" class="cls-6" d="M716.48,761.14l4.265.883,3.163-2.793v-.67a.9.9,0,0,1-.453.721l-.045.027a8.5,8.5,0,0,1-4.787.946l-1.664-.141a1.56,1.56,0,0,0-.442.108v.222Z" transform="translate(-510.661 -536.781)"/>
    <path id="Caminho_414" data-name="Caminho 414" class="cls-5" d="M720.064,740.024l.045-.024a.9.9,0,0,0,.459-.781l.069-8.473s.919-.658.7,2.322-.366,7.43-.366,7.43-.036,4.853-4.67,4.853c0,0-4.634.883-4.6-1.766s1.913-2.757,1.913-2.757l1.664.144A8.478,8.478,0,0,0,720.064,740.024Z" transform="translate(-507.316 -517.278)"/>
    <path id="Caminho_415" data-name="Caminho 415" class="cls-13" d="M642.52,648.253c.108,1.913,5.736.808,5.736.808l3.787-7.352s3.163-2.43,1.58-4.562a3.391,3.391,0,0,1-.231-.363l-.015-.018h0c-.033-.054-.063-.111-.093-.171h0c-1.135-2.253-.577-5.947-.577-5.947s1.469-10.74,1.985-13.572c.363-2,.213-8.563.093-12.233-.048-1.526-.093-2.55-.093-2.55l-9.344-2.5v2.787c-.021,2.3-.093,5.526-.33,7.623-.4,3.565,1.03,15.371,1.03,15.371l.5,10.743a9.95,9.95,0,0,1-1.2,5.229c-1.171,2.144-2.7,5.166-2.808,6.5A1.316,1.316,0,0,0,642.52,648.253Z" transform="translate(-458.914 -425.696)"/>
    <path id="Caminho_416" data-name="Caminho 416" class="cls-6" d="M642.514,734.43c.108,1.913,5.737.808,5.737.808l3.787-7.352s3.163-2.43,1.58-4.562a3.4,3.4,0,0,1-.231-.363,18.258,18.258,0,0,1-1.273,3.9s-3.127,6.256-4.121,7.689-5.313-.267-5.475-.327A1.31,1.31,0,0,0,642.514,734.43Z" transform="translate(-458.908 -511.873)"/>
    <path id="Caminho_417" data-name="Caminho 417" class="cls-5" d="M646.777,722.277s1.85-.429,1.3,4.388h0a3.1,3.1,0,0,1-1.463,2.754,10.518,10.518,0,0,0-4.4,6.1h0a3.328,3.328,0,0,1-2.568,3.244,12.04,12.04,0,0,1-4.956.4c-2.244-.625-1.249-2.168-1.249-2.168l2.574-3.055s4.487,1.766,5.478.33,4.121-7.686,4.121-7.686S647.326,722.682,646.777,722.277Z" transform="translate(-452.407 -511.389)"/>
    <path id="Caminho_418" data-name="Caminho 418" class="cls-6" d="M728.018,593.52l-.2,7.238c2.508-.243,4.3-.583,4.61-1.06.664-1.027,3.073-1.46,5.121-1.637-.063-1.354-.117-2.262-.117-2.262Z" transform="translate(-518.595 -421.309)"/>
    <path id="Caminho_419" data-name="Caminho 419" class="cls-6" d="M651.94,605.507a3.438,3.438,0,0,1,1.03-1.243c.991-.55.883,3.532.883,3.532s3.3.03,7.523-.024c-.048-1.526-.093-2.553-.093-2.553l-9.344-2.5S651.958,603.879,651.94,605.507Z" transform="translate(-465.505 -427.746)"/>
    <path id="Caminho_420" data-name="Caminho 420" class="cls-4" d="M646.122,456.362s1.105-3,2.1-3.538.883,3.529.883,3.529,24.273.222,25.487-1.655,8.274-1.766,8.274-1.766-.219-23.39-.772-32.214-1.433-16.882-3.64-19.309c-1.427-1.571-3.457-6.652-4.712-10.04-.682-1.85-1.135-3.2-1.135-3.2l-23.168,1.321-.189,1.877-2.46,24.6s-.33,27.142-1.325,33.32S646.122,456.362,646.122,456.362Z" transform="translate(-460.753 -277.634)"/>
    <g id="Grupo_13" data-name="Grupo 13" class="cls-14" transform="translate(184.423 110.536)">
      <path id="Caminho_421" data-name="Caminho 421" d="M685.093,454.7c1.2-1.874,8.274-1.766,8.274-1.766s-.219-23.39-.772-32.214-1.433-16.882-3.64-19.309c-1.433-1.577-3.457-6.652-4.712-10.04-.574-1.556-.985-2.754-1.1-3.1l1.8-.1s.453,1.348,1.138,3.2c1.255,3.388,3.283,8.47,4.709,10.04,2.207,2.427,3.09,10.482,3.64,19.309s.775,32.214.775,32.214-7.061-.108-8.277,1.766c-1.036,1.6-18.9,1.676-24.081,1.661C669.5,456.344,684.156,456.146,685.093,454.7Z" transform="translate(-657.561 -388.17)"/>
      <path id="Caminho_422" data-name="Caminho 422" d="M646.4,603.32c.448-.249.67.441.781,1.279a17.327,17.327,0,0,0-1.042,2.259s-.64-.345-.9-2.1A4.088,4.088,0,0,1,646.4,603.32Z" transform="translate(-645.24 -538.666)"/>
    </g>
    <path id="Caminho_423" data-name="Caminho 423" class="cls-9" d="M661.466,192.009c-1.6,2.186.018,5.295-1.7,7.421-.568.7-1.442,1.2-2.033,1.892a4.494,4.494,0,0,0-.517,4.52c.538,1.5,1.5,2.871,2.187,4.337a2.32,2.32,0,0,1,.222,1.976,5.6,5.6,0,0,1-.985,1.15,4.149,4.149,0,0,0-.541,4.4,14.25,14.25,0,0,0,2.85,3.934,1.945,1.945,0,0,0,2.826.646,11.112,11.112,0,0,0,5.058-14.5c-.931-2.232-2.484-4.37-2.5-6.728,0-1.871.961-3.658,1.132-5.52.207-2.265-1.132-5.86-3.865-6.848C663.779,190.144,662.28,190.885,661.466,192.009Z" transform="translate(-468.938 -138.065)"/>
    <path id="Caminho_424" data-name="Caminho 424" class="cls-6" d="M661.466,192.009c-1.6,2.186.018,5.295-1.7,7.421-.568.7-1.442,1.2-2.033,1.892a4.494,4.494,0,0,0-.517,4.52c.538,1.5,1.5,2.871,2.187,4.337a2.32,2.32,0,0,1,.222,1.976,5.6,5.6,0,0,1-.985,1.15,4.149,4.149,0,0,0-.541,4.4,14.25,14.25,0,0,0,2.85,3.934,1.945,1.945,0,0,0,2.826.646,11.112,11.112,0,0,0,5.058-14.5c-.931-2.232-2.484-4.37-2.5-6.728,0-1.871.961-3.658,1.132-5.52.207-2.265-1.132-5.86-3.865-6.848C663.779,190.144,662.28,190.885,661.466,192.009Z" transform="translate(-468.938 -138.065)"/>
    <path id="Caminho_425" data-name="Caminho 425" class="cls-6" d="M690.45,464.55a21.329,21.329,0,0,0-9.043,3.112,61.948,61.948,0,0,1-8.557,4.439" transform="translate(-480.135 -331.074)"/>
    <path id="Caminho_426" data-name="Caminho 426" class="cls-6" d="M689.7,489.74a13.236,13.236,0,0,0-8.334,4.055c-.781.826-1.454,1.751-2.268,2.544a10.073,10.073,0,0,1-4.469,2.532" transform="translate(-481.38 -348.698)"/>
    <path id="Caminho_427" data-name="Caminho 427" class="cls-6" d="M684.663,508.91a14.572,14.572,0,0,0-6.7,4.043c-.493.532-.94,1.1-1.433,1.631-2.658,2.853-6.412,4.367-10.037,5.8" transform="translate(-475.685 -362.111)"/>
    <path id="Caminho_428" data-name="Caminho 428" class="cls-13" d="M696.4,242.7a65.909,65.909,0,0,0,.661,7.665,10.035,10.035,0,0,0,1.325,4.142c1.766,2.1-8.6,4.911-8.6,4.911l-6.124-4.745s4.854-4.469,2.592-8.827S696.4,242.7,696.4,242.7Z" transform="translate(-487.698 -175.744)"/>
    <path id="Caminho_429" data-name="Caminho 429" class="cls-6" d="M658.79,391.369h24.493c-.682-1.85-1.135-3.2-1.135-3.2l-23.168,1.321Z" transform="translate(-470.298 -277.634)"/>
    <path id="Caminho_430" data-name="Caminho 430" class="cls-7" d="M642.4,309.815h26.186a9.086,9.086,0,0,1,1.048-6.944,15.349,15.349,0,0,1,2.742-3.556l.18-.165,9.142-2.024.492-.108s.075-16.624-5.811-18.906a34.414,34.414,0,0,1-9.416-5.367l-8.088,2.5-5.959-3c-1.913,2.057-6.989,1.249-6.989,1.249-8.31.955-8.31,7.208-8.31,7.208s4.853,11.326,5.223,11.326S642.4,309.815,642.4,309.815Z" transform="translate(-455.486 -196.522)"/>
    <path id="Caminho_431" data-name="Caminho 431" class="cls-6" d="M666.967,354.583s-5.34-1.183-7.157-3.253" transform="translate(-471.011 -251.858)"/>
    <path id="Caminho_432" data-name="Caminho 432" class="cls-6" d="M758.863,341.51l-6.193,5.076a10.543,10.543,0,0,0,.2,1.2l.18-.165L762.2,345.6Z" transform="translate(-535.982 -244.988)"/>
    <path id="Caminho_433" data-name="Caminho 433" class="cls-6" d="M717.46,374.678s1.354.763,3.43,1.766h3.559A9.086,9.086,0,0,1,725.5,369.5l-6.274-2.03C721.358,369.455,717.46,374.678,717.46,374.678Z" transform="translate(-511.347 -263.151)"/>
    <path id="Caminho_434" data-name="Caminho 434" class="cls-7" d="M624.153,293.76l-3.676,1.985-3.6,9.121s-3.751,10-3.385,12.65c0,0-1.321,6.253,1.03,7.355l6.127,2.775a.571.571,0,0,0,.736-.787c-.874-1.655-1.835-4.244-.3-5.667l-1.766-3.676,6.382-10.446,2.132-3.6Z" transform="translate(-438.343 -211.579)"/>
    <path id="Caminho_435" data-name="Caminho 435" class="cls-6" d="M676.978,349.307c.318,1.3,1.394,3.3,4.953,4.052l3.9,3.2,4.154,1.883,1.694.766.718-5.187-1.631-.9-1.9-1.039s-4.289-7.77-11.08-4.505a1.5,1.5,0,0,0-.811,1.733Z" transform="translate(-482.99 -248.67)"/>
    <path id="Caminho_436" data-name="Caminho 436" class="cls-13" d="M677.733,347.878c.318,1.3,1.391,3.3,4.95,4.052l3.9,3.2,4.157,1.883,1.691.766.718-5.187-1.631-.9-1.886-1.03s-4.292-7.77-11.083-4.49a1.5,1.5,0,0,0-.82,1.709Z" transform="translate(-483.522 -247.682)"/>
    <circle id="Elipse_53" data-name="Elipse 53" class="cls-6" cx="9.488" cy="9.488" r="9.488" transform="translate(192.376 54.706)"/>
    <circle id="Elipse_54" data-name="Elipse 54" class="cls-13" cx="9.488" cy="9.488" r="9.488" transform="translate(192.376 54.487)"/>
    <path id="Caminho_437" data-name="Caminho 437" class="cls-6" d="M716.233,278.059l-2.853-5.544s4.175-1.688,4.478-3.643,4,2.292,3.2,3.7A52.5,52.5,0,0,1,716.233,278.059Z" transform="translate(-508.492 -193.812)"/>
    <path id="Caminho_438" data-name="Caminho 438" class="cls-7" d="M716.233,276.59l-2.853-5.544s4.175-1.688,4.478-3.643,4,2.295,3.2,3.7A52.826,52.826,0,0,1,716.233,276.59Z" transform="translate(-508.492 -192.784)"/>
    <path id="Caminho_439" data-name="Caminho 439" class="cls-15" d="M618.627,342.06l15.765,21.195s-5.811,3.163-13.816-2.5l-3.457-4.121L607.25,340Z" transform="translate(-434.237 -243.931)"/>
    <path id="Caminho_440" data-name="Caminho 440" class="cls-13" d="M633.939,372.51l1.436-.039s8.77-8.512,10.923-4.2-5.463,8.331-5.463,8.331l-2.316,1.249-3.018.9-1.931-2.592Z" transform="translate(-452.652 -262.856)"/>
    <path id="Caminho_441" data-name="Caminho 441" class="cls-6" d="M631.431,387.725a2.143,2.143,0,0,1,.036,1.484.6.6,0,0,1-.261.285.67.67,0,0,1-.3.042,3.019,3.019,0,0,1-1.979-.979,9.038,9.038,0,0,1-1.282-1.856,3.423,3.423,0,0,1-.658-2.21,3.224,3.224,0,0,1,1.631-1.9c1.454-.961,1.5.159,1.82,1.4S631.1,386.476,631.431,387.725Z" transform="translate(-448.026 -273.474)"/>
    <path id="Caminho_442" data-name="Caminho 442" class="cls-7" d="M630.7,387.725a2.16,2.16,0,0,1,.036,1.484.6.6,0,0,1-.261.285.675.675,0,0,1-.3.042,3,3,0,0,1-1.979-.979,8.939,8.939,0,0,1-1.285-1.856,3.4,3.4,0,0,1-.655-2.211,3.219,3.219,0,0,1,1.628-1.9c1.457-.961,1.5.159,1.823,1.4S630.362,386.476,630.7,387.725Z" transform="translate(-447.513 -273.474)"/>
    <path id="Caminho_443" data-name="Caminho 443" class="cls-6" d="M623.85,315.05l.733-1.24-.64,2.3Z" transform="translate(-436.493 -219.558)"/>
    <path id="Caminho_444" data-name="Caminho 444" class="cls-6" d="M721.19,371.752l1.691.766.718-5.187-1.631-.9C723.094,367.721,722.109,370.109,721.19,371.752Z" transform="translate(-513.957 -262.423)"/>
    <path id="Caminho_445" data-name="Caminho 445" class="cls-6" d="M725.669,361.406s-5.46.333-7.779-1.156" transform="translate(-511.648 -258.099)"/>
    <g id="Grupo_14" data-name="Grupo 14" class="cls-14" transform="translate(190.096 76.15)">
      <path id="Caminho_446" data-name="Caminho 446" d="M735.863,305.517a15.374,15.374,0,0,1,2.742-3.559,7.322,7.322,0,0,1,.808-.439l8.512-1.748.493-.108s.075-16.624-5.809-18.906a35.354,35.354,0,0,1-9.178-5.169l.646-.2a34.324,34.324,0,0,0,9.416,5.367c5.887,2.28,5.809,18.906,5.809,18.906h-.883l-8.71,1.667s-.375.363-.49.469a16.881,16.881,0,0,0-2.784,3.682,9.233,9.233,0,0,0-.73,6.98h-.9A9.181,9.181,0,0,1,735.863,305.517Z" transform="translate(-712.617 -274.876)"/>
      <path id="Caminho_447" data-name="Caminho 447" d="M664.13,277.867c.141-.021.276-.042.423-.057a15.235,15.235,0,0,0,1.8.147A16.381,16.381,0,0,1,664.13,277.867Z" transform="translate(-664.13 -276.57)"/>
      <path id="Caminho_448" data-name="Caminho 448" d="M693.148,276.692l-5.388-2.727a2.854,2.854,0,0,0,.3-.285l5.622,2.844Z" transform="translate(-680.663 -273.68)"/>
    </g>
    <path id="Caminho_449" data-name="Caminho 449" class="cls-7" d="M734.952,340l3.6,4.415.736,11.989s.955,6.1-6.031,4.631-15.071-6.019-15.071-6.019,3.9-5.223,1.766-7.208l10,3.238s1.691-.369.366-1.838a8.275,8.275,0,0,1-1.559-4.121Z" transform="translate(-511.858 -243.931)"/>
    <path id="Caminho_450" data-name="Caminho 450" class="cls-6" d="M779.42,382.17l1.985,2.28a2.862,2.862,0,0,1-1.985-2.28Z" transform="translate(-554.698 -273.436)"/>
    <path id="Caminho_451" data-name="Caminho 451" class="cls-6" d="M736.99,360.8l3.091,3.97-1.544.369Z" transform="translate(-515.653 -252.435)"/>
    <path id="Caminho_452" data-name="Caminho 452" class="cls-6" d="M665.216,188.13a3.169,3.169,0,0,1,.33-2.586,20.429,20.429,0,0,0,1.276-2.37c.453-1.255.315-2.676.811-3.9.874-2.177,3.358-3.151,5.583-3.9a3.754,3.754,0,0,1,2.03-.276c.9.213,1.487,1.03,2.222,1.58,3.021,2.253,7.935-.228,10.857,2.156a5.683,5.683,0,0,1,1.829,3.808,33.63,33.63,0,0,1-.018,4.331c-.048,2.529.426,5.295,2.319,6.971.571.5,1.243.883,1.8,1.406a2.46,2.46,0,0,1,.9,2.009,6.961,6.961,0,0,1-.3,1.021,5.227,5.227,0,0,0,.871,3.9c2.042,3.535,5.643,6.448,9.725,6.529-.273,2.06-2.4,3.256-4.31,4.1-2.4,1.078-4.962,2.135-7.608,2s-5.406-1.829-5.869-4.436c-.159-.9-.138-1.985-.9-2.454-.469-.285-1.075-.213-1.58-.426a2.783,2.783,0,0,1-1.33-1.874,16.866,16.866,0,0,1-.784-4.805c-.033-1.934.222-4.046-.874-5.637-1.015-1.475-2.817-2.222-3.988-3.577-1.081-1.255-2.256-2.769-4.028-3C671.734,188.346,666.664,191.677,665.216,188.13Z" transform="translate(-474.685 -128.51)"/>
    <path id="Caminho_453" data-name="Caminho 453" class="cls-9" d="M665.216,186.66a3.169,3.169,0,0,1,.33-2.586,20.432,20.432,0,0,0,1.276-2.37c.453-1.255.315-2.676.811-3.9.874-2.18,3.358-3.154,5.583-3.9a3.754,3.754,0,0,1,2.03-.276c.9.213,1.487,1.03,2.222,1.58,3.021,2.253,7.935-.228,10.857,2.156a5.683,5.683,0,0,1,1.829,3.811,33.581,33.581,0,0,1-.018,4.328c-.048,2.529.426,5.295,2.319,6.971.571.5,1.243.883,1.8,1.406a2.46,2.46,0,0,1,.9,2.009,6.961,6.961,0,0,1-.3,1.021,5.227,5.227,0,0,0,.871,3.9c2.048,3.523,5.634,6.445,9.716,6.526-.273,2.06-2.4,3.256-4.31,4.1-2.4,1.075-4.962,2.132-7.608,2s-5.406-1.829-5.869-4.436c-.159-.9-.138-1.985-.9-2.454-.469-.285-1.075-.213-1.58-.426a2.783,2.783,0,0,1-1.331-1.874,16.849,16.849,0,0,1-.784-4.805c-.033-1.934.222-4.046-.874-5.637-1.015-1.475-2.817-2.222-3.988-3.577-1.081-1.255-2.256-2.769-4.028-3C671.734,186.876,666.664,190.213,665.216,186.66Z" transform="translate(-474.685 -127.482)"/>
    <path id="Caminho_454" data-name="Caminho 454" class="cls-6" d="M683.64,278.013l5.439-4.415s-3.724-2.018-4.169-3.739-3.424.817-3.12,2.361S683.64,278.013,683.64,278.013Z" transform="translate(-486.375 -194.453)"/>
    <path id="Caminho_455" data-name="Caminho 455" class="cls-7" d="M684.392,275.81l5.439-4.412s-3.724-2.018-4.151-3.739-3.424.817-3.121,2.361S684.392,275.81,684.392,275.81Z" transform="translate(-486.913 -192.914)"/>
    <circle id="Elipse_55" data-name="Elipse 55" class="cls-6" cx="0.432" cy="0.432" r="0.432" transform="translate(202.698 81.746)"/>
    <circle id="Elipse_56" data-name="Elipse 56" class="cls-6" cx="0.432" cy="0.432" r="0.432" transform="translate(202.698 84.148)"/>
    <circle id="Elipse_57" data-name="Elipse 57" class="cls-6" cx="0.432" cy="0.432" r="0.432" transform="translate(202.698 86.548)"/>
    <g id="Grupo_15" data-name="Grupo 15" class="cls-14" transform="translate(190.444 49.351)">
      <path id="Caminho_456" data-name="Caminho 456" d="M671.575,188.144c.429-1.18.336-2.5.739-3.694a4.031,4.031,0,0,0-.459.847c-.5,1.24-.357,2.661-.814,3.9l-.03.072A6.859,6.859,0,0,0,671.575,188.144Z" transform="translate(-669.291 -184.45)"/>
      <path id="Caminho_457" data-name="Caminho 457" d="M701.885,233.274c-2.4,1.075-4.962,2.132-7.608,2s-5.406-1.829-5.869-4.433c-.159-.9-.138-1.988-.9-2.457-.469-.285-1.075-.213-1.58-.427a2.784,2.784,0,0,1-1.331-1.874,16.853,16.853,0,0,1-.784-4.805c-.033-1.931.225-4.043-.871-5.637-1.018-1.475-2.82-2.22-3.992-3.577-1.081-1.252-2.255-2.769-4.027-3-2.43-.33-7.509,3-8.944-.547a2.793,2.793,0,0,1,.093-2.051c-.105.177-.207.354-.3.535a3.181,3.181,0,0,0-.327,2.589c1.445,3.544,6.514.213,8.944.547,1.772.24,2.946,1.757,4.027,3,1.171,1.358,2.973,2.1,3.989,3.58,1.1,1.592.841,3.7.874,5.634a16.851,16.851,0,0,0,.784,4.805,2.79,2.79,0,0,0,1.331,1.874c.5.213,1.111.144,1.58.426.775.469.754,1.565.9,2.457.469,2.6,3.226,4.3,5.869,4.433s5.19-.919,7.608-2c1.742-.775,3.682-1.847,4.2-3.6A9.1,9.1,0,0,1,701.885,233.274Z" transform="translate(-665.288 -199.85)"/>
    </g>
    <path id="Caminho_458" data-name="Caminho 458" class="cls-16" d="M829.775,273.579A70.65,70.65,0,0,0,821,269.019l-.132-.093a5.289,5.289,0,0,1-1.6-2.024,4.2,4.2,0,0,1,0-.435.186.186,0,0,0,0,.042c.1-1.937,1.478-3.7,2.784-5.238l3.343-3.931a3.874,3.874,0,0,0,.862-1.364,3.142,3.142,0,0,0,.09-.838V254.8c-.018-.976-.045-1.955-.081-2.931-.03-.853-.249-1.928-1.1-2.1-.445-.09-1.033.069-1.267-.3a.73.73,0,0,1-.057-.508.173.173,0,0,0,0,.042v-.048a11.312,11.312,0,0,0,.315-2.009,2.739,2.739,0,0,0-.138-1.018c-.493-1.415-2.2-2-3.7-2.265s-3.193-.5-4.136-1.673a12.234,12.234,0,0,0-.823-1.132,3.247,3.247,0,0,0-1.538-.76,8.71,8.71,0,0,0-5.6.487,5.022,5.022,0,0,1-2.256.715c-.8-.048-1.538-.625-2.355-.763a3.36,3.36,0,0,0-3.238,1.9,4.634,4.634,0,0,0-.6,2.235v.132h0a3.268,3.268,0,0,0,.859,2.283c.571.6,1.418,1,1.655,1.775.1.315.072.658.159.979a.883.883,0,0,0,.036.117l-.042.057a9.911,9.911,0,0,0-2.1,6.109,10.139,10.139,0,0,0,7.124,9.611v.3a4.32,4.32,0,0,1-1.382,3.364l-9.007,3.6s-5.43-.646-7.388,7.289a13.533,13.533,0,0,0-.336,4.025,11.667,11.667,0,0,1-1.5,6.028c-2.225,4.361-1.718,14.371,2.835,15.362,4.3.937,5.98.547,6.157.5v.174c-.072,1.88-.754,18.08-3.232,20.039-.685.544-.559.9,0,1.156,0,0,0,.105-.015.3-.075,1.2-.456,5.706-2.1,8.265-1.925,2.973-1.724,20.123-1.724,20.123l-1.312,10.109s.808,6.244,0,7.334c-.724.97-1.685,24.069-1.886,29.079h-.084a2.439,2.439,0,0,0-1.946,1.2c-1.063,1.727-4.787,4.92-4.787,4.92-.808,1.147-3.8,2.247-5.376,2.763a3.336,3.336,0,0,0-.6.264,3.2,3.2,0,0,0-1.358,1.43,1.535,1.535,0,0,0-.144,1.2c.4.988,8.8,1.685,10.929.691,1.67-.778,8.289-1.8,11.037-2.2a2.265,2.265,0,0,0,1.964-1.964,1.3,1.3,0,0,0-.252-.982h0a8.706,8.706,0,0,1-.9-3.6,2.437,2.437,0,0,0,.619-.366,26.384,26.384,0,0,1,1.5-10.6c2.024-5.352,2.631-15.263,2.126-21.705,0,0,6.172-26.562,11.031-29.04h0c.075.1,2.433,3.121,2.733,12.488a37.841,37.841,0,0,0,3.742,15.759s-1.52,16.155,0,22.2l-1.985,9.536c-.147-.123-.24-.219-.24-.219s.06.264.141.688l-.042.2.087.018a18.776,18.776,0,0,1,.42,4.505c-.078.694-.273,1.646-.406,2.58-.21,1.469-.267,2.892.5,3.2,1.267.511,8.71,1.2,9.971-.432a2.34,2.34,0,0,0,.366-2.448,2.476,2.476,0,0,0-.366-.625s-1.976-3.229-1.418-5.505a1.675,1.675,0,0,0-.237-1.306,67.153,67.153,0,0,1,1.7-10.68c1.267-4.769,3.937-15.227,1.973-22.1h0q-.111-.405-.252-.793a29.684,29.684,0,0,1-1.114-11.6,23.633,23.633,0,0,1,0-10.109c1.216-5.55,2.066-11,2.066-11a69.559,69.559,0,0,0,.084-11.83,2.948,2.948,0,0,0-.039-.3l.318-.072s-1.721-7.632-2.328-12.488c-.144-1.147-.33-2.6-.535-4.148a10.59,10.59,0,0,0,1.649-.411c5.463-1.883,7.184-18.921,7.184-18.921v-5.406S836.151,277.246,829.775,273.579ZM789.061,405.2c-.168-.084-.267-.141-.267-.141h0Z" transform="translate(-549.655 -173.852)"/>
    <path id="Caminho_459" data-name="Caminho 459" class="cls-17" d="M860.821,566.875c2.37,6.815-.4,17.876-1.682,22.826a69,69,0,0,0-1.679,10.866,22.885,22.885,0,0,1-8.692-.2l2.075-10.172c-1.484-6.025,0-22.126,0-22.126a38.384,38.384,0,0,1-3.655-15.7c-.3-9.331-2.592-12.35-2.664-12.443h0c-4.739,2.469-10.764,28.941-10.764,28.941.493,6.418-.1,16.3-2.075,21.624a26.732,26.732,0,0,0-1.481,10.566,3.213,3.213,0,0,1-2.7.517c-2.82-.456-6.2-2.886-6.2-2.886s1.084-28.832,1.877-29.926,0-7.31,0-7.31l1.282-10.073s-.2-17.089,1.679-20.051c1.622-2.559,1.994-7.058,2.066-8.238v-.3l2.859-3.424s27.655-2.075,29.733,0a5.926,5.926,0,0,1,1.009,3.124,70.773,70.773,0,0,1-.084,11.788s-.829,5.433-2.015,10.962a24.063,24.063,0,0,0,0,10.076A30.164,30.164,0,0,0,860.821,566.875Z" transform="translate(-584 -368.778)"/>
    <path id="Caminho_460" data-name="Caminho 460" class="cls-12" d="M922.838,795.457c-1.234,1.631-8.494.94-9.731.432-.754-.3-.7-1.733-.493-3.2.129-.928.318-1.877.4-2.568a23.643,23.643,0,0,0-.6-5.385s1.628,1.73,2.021,0a1.884,1.884,0,0,1,1.412-1.34,3.688,3.688,0,0,1,2.565.159c1.282.559,3.421,1.745,3.039,3.349-.544,2.268,1.382,5.487,1.382,5.487a2.5,2.5,0,0,1,.36.619,2.37,2.37,0,0,1-.351,2.442Z" transform="translate(-647.746 -554.052)"/>
    <path id="Caminho_461" data-name="Caminho 461" class="cls-6" d="M923,817.473c-1.234,1.631-8.494.94-9.731.432-.754-.3-.7-1.733-.492-3.2a8.379,8.379,0,0,0,4.316.466,12.166,12.166,0,0,1,1.553-.048,36.121,36.121,0,0,0,4.715-.1A2.369,2.369,0,0,1,923,817.473Z" transform="translate(-647.913 -576.067)"/>
    <path id="Caminho_462" data-name="Caminho 462" class="cls-6" d="M848.2,614.428c.493,6.418-.1,16.3-2.075,21.624a26.732,26.732,0,0,0-1.481,10.566,3.213,3.213,0,0,1-2.7.517c.6-4.166,3.136-22.114,4.76-36.3a59.393,59.393,0,0,1,10.512-27.259l1.727,1.9C854.224,587.956,848.2,614.428,848.2,614.428Z" transform="translate(-598.441 -414.355)"/>
    <path id="Caminho_463" data-name="Caminho 463" class="cls-18" d="M890.368,313.041l-1.2,5.926-5.908,9.926-7.283-3.112s-9.911-10.371-3.679-11.851a5.516,5.516,0,0,0,2.066-.919,4.273,4.273,0,0,0,1.613-3.574,10.957,10.957,0,0,0-1-4.247l12.74-4a20.449,20.449,0,0,0-.9,5.16c-.1,3.472,1.2,5.181,2.25,6.007A3.826,3.826,0,0,0,890.368,313.041Z" transform="translate(-618.24 -216.777)"/>
    <path id="Caminho_464" data-name="Caminho 464" class="cls-6" d="M898.728,301.19a20.451,20.451,0,0,0-.9,5.16,9.682,9.682,0,0,1-.742.79,10.079,10.079,0,0,1-10.073,2.3A10.957,10.957,0,0,0,886,305.19Z" transform="translate(-629.268 -216.777)"/>
    <path id="Caminho_465" data-name="Caminho 465" class="cls-18" d="M886.3,272.293a10.028,10.028,0,1,1-2.938-7.137,10.076,10.076,0,0,1,2.938,7.137Z" transform="translate(-615.38 -189.511)"/>
    <path id="Caminho_466" data-name="Caminho 466" class="cls-6" d="M890.368,339.034l-1.2,5.926-5.908,9.926-7.283-3.112s-9.911-10.371-3.679-11.851a5.515,5.515,0,0,0,2.066-.919c-1.123,3.087,3.514,9.512,3.514,9.512.541.8,1.778.3,1.778.3,2.988-.454,8.488-9.046,9.386-10.476A3.825,3.825,0,0,0,890.368,339.034Z" transform="translate(-618.24 -242.77)"/>
    <path id="Caminho_467" data-name="Caminho 467" class="cls-6" d="M877.944,522.477c-1.754.4-11.458,2.547-15.137,2.009-4.049-.6-11.92-.985-11.92-.985s-5.013.27-6.556-.435v-.3l2.859-3.424s27.655-2.075,29.733,0A5.9,5.9,0,0,1,877.944,522.477Z" transform="translate(-600.113 -368.764)"/>
    <path id="Caminho_468" data-name="Caminho 468" class="cls-7" d="M843.741,349.03s-5.211-7.208-3.247-10.031l-8.8,3.6s-5.3-.643-7.208,7.265a13.758,13.758,0,0,0-.327,4.013,11.872,11.872,0,0,1-1.451,6.007c-2.171,4.346-1.679,14.323,2.766,15.317s6.022.493,6.022.493-.6,18.074-3.16,20.15,6.547,1.58,6.547,1.58,7.872.4,11.923.988,15.407-2.075,15.407-2.075-1.679-7.6-2.274-12.443-1.979-15.146-1.979-15.146L868.032,355.1s1.778-8.247-4.445-11.9a70.31,70.31,0,0,0-8.563-4.55s-6.253,10.181-9.512,10.674C845.519,349.324,844.282,349.823,843.741,349.03Z" transform="translate(-584.108 -242.986)"/>
    <path id="Caminho_469" data-name="Caminho 469" class="cls-6" d="M853.269,382.74s-.1,3.262.5,4.544,2.766,8.41,2.766,8.41H851.59s2.667-2.865,2.472-4.25S853.269,382.74,853.269,382.74Z" transform="translate(-605.192 -273.835)"/>
    <path id="Caminho_470" data-name="Caminho 470" class="cls-18" d="M869.191,432.383s-10.908-2.667-11.923-4.938-3.817-7.355-3.817-7.355l1.15-1.55,5.3,4.163s6.307,5.037,9.286,5.532S869.191,432.383,869.191,432.383Z" transform="translate(-606.494 -298.883)"/>
    <path id="Caminho_471" data-name="Caminho 471" class="cls-19" d="M869.191,432.383s-10.908-2.667-11.923-4.938-3.817-7.355-3.817-7.355l1.15-1.55,5.3,4.163s6.307,5.037,9.286,5.532S869.191,432.383,869.191,432.383Z" transform="translate(-606.494 -298.883)"/>
    <path id="Caminho_472" data-name="Caminho 472" class="cls-18" d="M891.355,421.727v5.917h-.949a27.658,27.658,0,0,0-13.436,3.481l-1.779.985-.478.267-3.063-6.908,2.865-2.568h.147a17.13,17.13,0,0,0,5.016-.111c1.219-.414,2.733-1.727,6.325-.811,1.769.453,3.283,2.436,5,1.817Z" transform="translate(-619.228 -301.066)"/>
    <path id="Caminho_473" data-name="Caminho 473" class="cls-6" d="M918.9,370.36l1.973,2.222v5.385s-1.679,16.987-7.01,18.864-14.855-1.087-14.855-1.087-2.46-6.517-1.31-6.908,10.167-2.775,10.167-2.775-.126-9.965,1.847-12.93c0,0-1.282-9.283,3.163-9.482S918.9,370.36,918.9,370.36Z" transform="translate(-637.237 -260.475)"/>
    <path id="Caminho_474" data-name="Caminho 474" class="cls-7" d="M919.9,370.36l1.976,2.222v5.385s-1.679,16.987-7.013,18.864-14.855-1.087-14.855-1.087-2.46-6.517-1.306-6.908,10.166-2.775,10.166-2.775-.129-9.965,1.847-12.93c0,0-1.285-9.283,3.16-9.482S919.9,370.36,919.9,370.36Z" transform="translate(-637.94 -260.475)"/>
    <path id="Caminho_475" data-name="Caminho 475" class="cls-6" d="M888.339,276.486a3.97,3.97,0,0,0-.225-1.925,1.466,1.466,0,0,0-1.568-.9c-.844.2-1.2,1.3-2.036,1.562a1.627,1.627,0,0,1-1.8-.925,4.606,4.606,0,0,1-.342-2.15v-2.475a4.1,4.1,0,0,0-.583-2.574,4.544,4.544,0,0,0-3.388-1.225,2.874,2.874,0,0,0-1.934.778,2.489,2.489,0,0,1-2.033.724,1.751,1.751,0,0,1-1.418-1.225v-.03a10.073,10.073,0,1,1,14.975,13.371A27.157,27.157,0,0,0,888.339,276.486Z" transform="translate(-620.179 -189.427)"/>
    <path id="Caminho_476" data-name="Caminho 476" class="cls-20" d="M868.344,252.844a1.766,1.766,0,0,1-1.421-1.228c-.081-.318-.06-.658-.153-.973-.231-.778-1.06-1.18-1.616-1.772a3.969,3.969,0,0,1-.252-4.541,3.281,3.281,0,0,1,3.16-1.886c.8.138,1.5.706,2.3.76a4.642,4.642,0,0,0,2.2-.712,8.3,8.3,0,0,1,5.472-.487,3.154,3.154,0,0,1,1.5.76,13.172,13.172,0,0,1,.8,1.126c.919,1.171,2.568,1.4,4.036,1.667s3.13.847,3.6,2.259a5.9,5.9,0,0,1-.174,2.925.882.882,0,0,0,.039.6c.231.378.8.219,1.237.3.832.177,1.045,1.249,1.078,2.1q.051,1.46.078,2.922a3.723,3.723,0,0,1-.087,1.081,3.816,3.816,0,0,1-.838,1.361l-3.262,3.919c-1.448,1.736-2.982,3.76-2.7,6.007a1.4,1.4,0,0,1-1.724-1,4.486,4.486,0,0,1,.108-2.226,27.287,27.287,0,0,0,.522-3.859,3.957,3.957,0,0,0-.225-1.922,1.466,1.466,0,0,0-1.568-.9c-.847.2-1.2,1.3-2.036,1.562a1.628,1.628,0,0,1-1.8-.925,4.6,4.6,0,0,1-.342-2.147v-2.478a4.1,4.1,0,0,0-.583-2.574,4.544,4.544,0,0,0-3.388-1.225,2.874,2.874,0,0,0-1.931.778A2.494,2.494,0,0,1,868.344,252.844Z" transform="translate(-614.095 -175.189)"/>
    <path id="Caminho_477" data-name="Caminho 477" class="cls-6" d="M885.3,381.92l3.094,12.707S890.832,394.612,885.3,381.92Z" transform="translate(-628.778 -273.261)"/>
    <path id="Caminho_478" data-name="Caminho 478" class="cls-6" d="M913.887,374.85s-4.049,6.631-2.469,13.491l.754.054S910.826,385.221,913.887,374.85Z" transform="translate(-646.796 -268.314)"/>
    <path id="Caminho_479" data-name="Caminho 479" class="cls-6" d="M929,499s4.974-1.646,5.334,2.171C934.346,501.169,933.409,498.553,929,499Z" transform="translate(-659.353 -354.929)"/>
    <path id="Caminho_480" data-name="Caminho 480" class="cls-6" d="M861.383,426.81s-.988,6.908.79,9.68a21.662,21.662,0,0,1-8.692,1.186l-.6-10.866Z" transform="translate(-606.095 -304.669)"/>
    <path id="Caminho_481" data-name="Caminho 481" class="cls-6" d="M875.191,435l-.478.267-3.063-6.908,2.865-2.568h.147C874.617,426.132,873.818,432.07,875.191,435Z" transform="translate(-619.228 -303.955)"/>
    <path id="Caminho_482" data-name="Caminho 482" class="cls-7" d="M854.729,425.83s-.988,6.908.79,9.677a21.6,21.6,0,0,1-8.692,1.186L843.37,425.83Z" transform="translate(-599.441 -303.983)"/>
    <path id="Caminho_483" data-name="Caminho 483" class="cls-12" d="M798.189,790.664a2.238,2.238,0,0,1-1.919,1.958c-2.682.4-9.142,1.421-10.773,2.2-2.075.988-10.272.3-10.668-.691a1.568,1.568,0,0,1,.141-1.2,3.166,3.166,0,0,1,1.324-1.424,3.515,3.515,0,0,1,.6-.264c1.544-.514,4.46-1.607,5.247-2.754,0,0,3.637-3.181,4.673-4.9a2.373,2.373,0,0,1,1.9-1.183c.865-.039,1.829.4,2.225,2.292,0,0,4.736,2.7,6.007.333,0,0,.2,3.64.985,4.637h0A1.322,1.322,0,0,1,798.189,790.664Z" transform="translate(-551.443 -553.463)"/>
    <path id="Caminho_484" data-name="Caminho 484" class="cls-6" d="M798.189,807.587a2.238,2.238,0,0,1-1.919,1.958c-2.682.4-9.142,1.421-10.773,2.2-2.075.988-10.272.3-10.668-.691a1.568,1.568,0,0,1,.141-1.2,3.166,3.166,0,0,1,1.324-1.424c1.337.9,4.3,1.754,10.83.736,6.226-.973,9.31-1.925,10.812-2.574h0A1.322,1.322,0,0,1,798.189,807.587Z" transform="translate(-551.443 -570.386)"/>
    <g id="Grupo_16" data-name="Grupo 16" class="cls-14" transform="translate(250.21 71.231)">
      <path id="Caminho_485" data-name="Caminho 485" d="M942.415,266.812v-.048a8.845,8.845,0,0,0,.3-2.243,14.823,14.823,0,0,1-.3,1.8A1.091,1.091,0,0,0,942.415,266.812Z" transform="translate(-918.93 -262.352)"/>
      <path id="Caminho_486" data-name="Caminho 486" d="M882.006,271a2.855,2.855,0,0,1,.243,1.129,3.405,3.405,0,0,0-.243-1.574,1.46,1.46,0,0,0-1.565-.9c-.847.2-1.2,1.3-2.039,1.562a1.631,1.631,0,0,1-1.8-.925,4.57,4.57,0,0,1-.342-2.15V265.67a4.1,4.1,0,0,0-.583-2.574,4.551,4.551,0,0,0-3.388-1.228,2.878,2.878,0,0,0-1.934.781,2.5,2.5,0,0,1-2.036.724,1.76,1.76,0,0,1-1.418-1.225c-.081-.318-.06-.661-.153-.976-.231-.775-1.06-1.18-1.616-1.769a3.235,3.235,0,0,1-.832-2.1,3.367,3.367,0,0,0,.832,2.532c.556.6,1.385.994,1.616,1.769.093.3.072.658.153.976a1.76,1.76,0,0,0,1.418,1.225,2.5,2.5,0,0,0,2.036-.724,2.877,2.877,0,0,1,1.934-.781,4.543,4.543,0,0,1,3.388,1.228,4.12,4.12,0,0,1,.583,2.574v2.475a4.545,4.545,0,0,0,.342,2.147,1.635,1.635,0,0,0,1.8.928c.829-.264,1.2-1.364,2.039-1.562A1.517,1.517,0,0,1,882.006,271Z" transform="translate(-864.285 -257.3)"/>
      <path id="Caminho_487" data-name="Caminho 487" d="M934.449,292.39a3.8,3.8,0,0,1-.841,1.358l-3.262,3.919c-1.373,1.649-2.823,3.559-2.7,5.664.1-1.931,1.445-3.688,2.7-5.22l3.262-3.919a3.794,3.794,0,0,0,.841-1.358,3.747,3.747,0,0,0,.087-1.084A2.854,2.854,0,0,1,934.449,292.39Z" transform="translate(-908.61 -281.403)"/>
      <path id="Caminho_488" data-name="Caminho 488" d="M921.748,326.879a2.315,2.315,0,0,1-.1-.529,2.665,2.665,0,0,0,.1.973,1.394,1.394,0,0,0,1.724,1,4.2,4.2,0,0,1-.036-.432A1.4,1.4,0,0,1,921.748,326.879Z" transform="translate(-904.414 -305.612)"/>
    </g>
    <path id="Caminho_489" data-name="Caminho 489" class="cls-6" d="M812.69,789.36s1.033,1.8,4.775.216" transform="translate(-577.976 -558.331)"/>
    <path id="Caminho_490" data-name="Caminho 490" class="cls-6" d="M918,790.82s3.226,3.8,7.292,1.246" transform="translate(-651.657 -559.353)"/>
    <path id="Caminho_491" data-name="Caminho 491" class="cls-6" d="M943.775,641.23s-2.28,1.424-2.352,2.237,1.177-.6,1.177-.6Z" transform="translate(-668.043 -454.69)"/>
    <path id="Caminho_492" data-name="Caminho 492" class="cls-6" d="M942.726,677.59a4.766,4.766,0,0,1-2.808,1.1c-1.706.075-1.562,2.3-.448,1.631A27.966,27.966,0,0,0,942.726,677.59Z" transform="translate(-666.093 -480.13)"/>
    <path id="Caminho_493" data-name="Caminho 493" class="cls-6" d="M949.082,682.34s-1.093,5.373-1.982,4.337" transform="translate(-672.017 -483.453)"/>
    <path id="Caminho_494" data-name="Caminho 494" class="cls-21" d="M242.815,406.051s6.863,1.883,10.166-.622,4.736-1.7,4.736-1.7,7.878-.435,8.527-2.3-3.021-8.626-3.021-8.626c-.261-.6-.643-1.364-.814-1.364l.036-2.853h0l1.141-11.938c2.634-6.755.048-15.482.048-15.482L263.163,359a5.478,5.478,0,0,1,.447-3.6l4.784-9.611a14.385,14.385,0,0,1,.9-1.844c.3-.55.7-1.228,1.2-2.042.147-.234.3-.478.469-.733.58-.9,1.282-1.922,2.132-3.1a25.364,25.364,0,0,0,3.808-9.31l.255.847h.057l.069.015h.114l.123.021h.045l1.472,18.729c.09,7.3,2.772,11.347,2.772,11.347l-.369,16.125c.5,3.883-.6,9.061-1.108,11.128l-1.159,2.616a3.145,3.145,0,0,0-1.709,2.379c-.228,1.931-2.262,6.094-2.262,6.094-.787,1-2.5,3.691-2.5,3.691s-.8,2.6-.306,3.574,4.667.874,4.667.874c4.76,1.054,8.409-1.5,8.178-3.262s.742-2.208.742-2.208c1.892-.6,1.709-1.883,1.709-1.883a11.785,11.785,0,0,0-1.433-7.671l-.3.694a10.562,10.562,0,0,1,.571-4.094l-.174.12-.054.033h-.018c.3-2.634,3.066-7.508,3.066-7.508,5.082-8.914,3.235-20.994,3.235-20.994l-.787-3.766-.045-1.421a47.417,47.417,0,0,1,.766-10.121c.273-1.478.556-3.262.772-5.229a46.215,46.215,0,0,1,2.607-10.263l.2-.036h.024c.276-.048.556-.1.838-.15h.054s.162-.877.3-2.37c.081-.952.147-2.159.147-3.547a39.906,39.906,0,0,0-1.9-12.347l.153-.219s.363-.493,1.027-1.346h0c1.219-1.55,3.118-3.9,5.457-6.559,4.19-4.778,2.958-9.611,2.958-9.611s-3.033-11.116-4.385-17.789a20.23,20.23,0,0,0-3.328-7.914,15.75,15.75,0,0,0,.42-3.208,11.718,11.718,0,0,0-.868-5.812,4.993,4.993,0,0,0-4.757-2.94,1.82,1.82,0,0,1-.853,0,1.3,1.3,0,0,1-.562-.49,7.372,7.372,0,0,1-.871-5.673c.36-1.934,1.1-3.784,1.43-5.724a7.088,7.088,0,0,0-1.054-5.631c-1.451-1.8-3.979-2.31-5.866-3.664-1.324-.952-2.319-2.319-3.715-3.163s-2.7-.523-4.22-.2c-2.55.538-4.974.784-7.385,1.88a19.669,19.669,0,0,0-6.436,4.682,6.109,6.109,0,0,0-1.436,2.265c-.6,1.985.574,4.1.327,6.154a12.176,12.176,0,0,1-1.715,4.025,5.214,5.214,0,0,0-.667,4.2c.841,2.126,3.583,2.577,5.577,3.709a1.7,1.7,0,0,1,.661.574c.493.859-.514,1.751-1.147,2.514a3.787,3.787,0,0,0-.751,1.526,5.442,5.442,0,0,0-3.265,3.94c-.676,3.024.363,6.842,1.279,9.365-1,5.619.3,7.836,1.258,8.686a4.821,4.821,0,0,1,1.67,3.286v.105c.063,1.021.171,2.039.315,3.054h0c-.033-.237-.066-.49-.084-.6-.784,1.451-2.277,5.157-3.118,11.392a34.233,34.233,0,0,1-.76,3.967,21.7,21.7,0,0,0-.637,7.094l.15,2.021a.637.637,0,0,1-.409-.135l1.054,1.931v3.259a12.014,12.014,0,0,1-.8,4.3c-.075.2-.156.4-.243.6a3.5,3.5,0,0,0-.354,1.769c-2.268,3.475-7.466,22.949-7.466,22.949-2.82,6.385.231,10.512.231,10.512s1.478,17.777,1.754,18.7.889,11.755.889,11.755h0v.862a2.021,2.021,0,0,0-.514-.147c-2.472-.138-3.142,3.766-3.142,3.766l-5.058,4.829s-2.31-.39-5.706,2.159S242.815,406.051,242.815,406.051Zm50.5-102.743-.015-.054-.138.081h0l-.057.033-.027.018h0l-2.331-8.226a13.661,13.661,0,0,1-.171-6.767l1.8-7.893h0v-1.9l5.727,15.263C298.474,295.923,295.071,300.906,293.317,303.308Z" transform="translate(-176.954 -166.895)"/>
    <path id="Caminho_495" data-name="Caminho 495" class="cls-22" d="M384.076,557a47.3,47.3,0,0,0-2.9,11.022c-.213,1.946-.49,3.706-.76,5.166a47.212,47.212,0,0,0-.739,9.992l.045,1.4.751,3.715s1.8,11.932-3.175,20.723c0,0-2.949,5.265-3.039,7.758l-2,.772-4.037-1.132s1.949-6.989,1.315-11.887l.363-15.918s-2.622-3.983-2.712-11.191l-1.541-19.78Z" transform="translate(-265.199 -395.758)"/>
    <path id="Caminho_496" data-name="Caminho 496" class="cls-22" d="M304.99,547.62s-.5,7.713-4.31,13.029-4.625,7.623-4.625,7.623l-4.7,9.5a5.439,5.439,0,0,0-.442,3.553l.463,2.138s2.541,8.62-.045,15.29l-1.225,12.885h-7.166s-.6-10.707-.862-11.614-1.724-18.465-1.724-18.465-3-4.085-.228-10.389c0,0,6.262-23.591,7.938-23.183S304.99,547.62,304.99,547.62Z" transform="translate(-204.539 -389.195)"/>
    <g id="Grupo_17" data-name="Grupo 17" class="cls-14" transform="translate(84.843 158.425)">
      <path id="Caminho_497" data-name="Caminho 497" d="M314.95,583.474l-.46-2.138a5.406,5.406,0,0,1,.439-3.568l4.7-9.506s.814-2.313,4.625-7.623c3.661-5.106,4.265-12.422,4.307-12.984l.73-.036s-.5,7.713-4.31,13.029-4.625,7.623-4.625,7.623l-4.7,9.5a5.439,5.439,0,0,0-.442,3.553l.463,2.138s2.541,8.62-.045,15.29l-1.225,12.885h-.727l1.225-12.885C317.491,592.079,314.95,583.474,314.95,583.474Z" transform="translate(-313.68 -547.62)"/>
    </g>
    <path id="Caminho_498" data-name="Caminho 498" class="cls-6" d="M387.963,616.788c.09-2.493,3.039-7.758,3.039-7.758,4.992-8.8,3.175-20.723,3.175-20.723l-.769-3.718-.045-1.4a47.2,47.2,0,0,1,.739-9.992c.267-1.46.544-3.22.757-5.166a47.294,47.294,0,0,1,2.892-11l.745-.03a47.3,47.3,0,0,0-2.9,11.022c-.213,1.946-.49,3.706-.76,5.166a47.208,47.208,0,0,0-.739,9.992l.045,1.4.751,3.715s1.8,11.932-3.175,20.723c0,0-2.949,5.265-3.039,7.758l-2,.772-.421-.117Z" transform="translate(-279.619 -395.758)"/>
    <path id="Caminho_499" data-name="Caminho 499" class="cls-23" d="M373.539,753.048a3.472,3.472,0,0,0,3.3-.408,10.662,10.662,0,0,0-.27,5.989c.817,3.268-7.623-2.631-7.623-2.631l1.8-4.118A2.825,2.825,0,0,0,373.539,753.048Z" transform="translate(-267.508 -532.108)"/>
    <path id="Caminho_500" data-name="Caminho 500" class="cls-6" d="M374.181,753.211a3.372,3.372,0,0,0,2.682-.6,10.662,10.662,0,0,0-.27,5.989c.817,3.268-7.623-2.631-7.623-2.631l1.8-4.118a2.575,2.575,0,0,0,2.057,1.159C373.295,753.063,373.739,753.126,374.181,753.211Z" transform="translate(-267.522 -532.087)"/>
    <path id="Caminho_501" data-name="Caminho 501" class="cls-22" d="M289.32,433.79h3.526V413.785l-2.646-.475Z" transform="translate(-202.435 -289.174)"/>
    <path id="Caminho_502" data-name="Caminho 502" class="cls-19" d="M289.32,433.79h3.526V413.785l-2.646-.475Z" transform="translate(-202.435 -289.174)"/>
    <path id="Caminho_503" data-name="Caminho 503" class="cls-24" d="M357.208,760.074a3.516,3.516,0,0,1,3.22,1.859l1.225.952.6-1.406a11.713,11.713,0,0,1,1.388,7.578s.18,1.267-1.679,1.859c0,0-.952.453-.727,2.177s-3.355,4.265-8.028,3.22c0,0-4.085.093-4.583-.862s.318-3.493.318-3.493,1.679-2.661,2.448-3.643c0,0,2-4.115,2.225-6.007S356.028,759.029,357.208,760.074Z" transform="translate(-253.174 -537.59)"/>
    <path id="Caminho_504" data-name="Caminho 504" class="cls-23" d="M298.728,759.573l.036-2.82s-4.058,1.168-7.343-.153c0,0,.276,2.835-.18,3.223s1.52,4.037,1.52,4.037l2.208,2.313,3.8-1.382,1.03-3.244S299,759.573,298.728,759.573Z" transform="translate(-213.089 -535.41)"/>
    <path id="Caminho_505" data-name="Caminho 505" class="cls-6" d="M298.728,759.573l.036-2.82s-4.058,1.168-7.343-.153c0,0,.276,2.835-.18,3.223s1.52,4.037,1.52,4.037l2.208,2.313,3.8-1.382,1.03-3.244S299,759.573,298.728,759.573Z" transform="translate(-213.089 -535.41)"/>
    <path id="Caminho_506" data-name="Caminho 506" class="cls-24" d="M256.257,763.091s2.156.249,1.883,3,.114,0,.114,0a7.9,7.9,0,0,1,3.108,2.223c.817,1.294,2.292-1.156,2.4-1.859s1.03-.994,1.03-.994,3.6,6.682,2.967,8.521-8.373,2.261-8.373,2.261-1.409-.793-4.652,1.679-9.98.6-9.98.6-5.49-2.292-2.153-4.805,5.6-2.132,5.6-2.132l4.968-4.787S253.83,762.953,256.257,763.091Z" transform="translate(-178.355 -539.949)"/>
    <path id="Caminho_507" data-name="Caminho 507" class="cls-25" d="M326.574,235.832c1.373.832,2.349,2.183,3.649,3.124,1.85,1.337,4.334,1.835,5.757,3.619a7.071,7.071,0,0,1,1.033,5.559c-.324,1.916-1.051,3.745-1.4,5.655a7.323,7.323,0,0,0,.856,5.6,1.271,1.271,0,0,0,.55.484,1.8,1.8,0,0,0,.838,0,4.9,4.9,0,0,1,4.673,2.9,11.631,11.631,0,0,1,.85,5.739,11.862,11.862,0,0,1-.958,4.676c-1.2,2.451-3.7,3.964-6.166,5.124a47.752,47.752,0,0,1-4.923,1.988,7.408,7.408,0,0,1-3.568.538c-2.051-.354-3.5-2.22-5.451-2.949a11.475,11.475,0,0,0-5.061-.234c-1.448.126-3.1.123-4.1-.934-1.279-1.358-.7-3.547-.048-5.295a3.769,3.769,0,0,1-2.667-6.163c.619-.754,1.607-1.634,1.123-2.484a1.646,1.646,0,0,0-.649-.565c-1.955-1.117-4.649-1.565-5.472-3.661a5.163,5.163,0,0,1,.652-4.157,12.323,12.323,0,0,0,1.685-3.973c.24-2.03-.9-4.118-.321-6.076a6.09,6.09,0,0,1,1.409-2.241,19.33,19.33,0,0,1,6.307-4.622c2.37-1.084,4.745-1.327,7.25-1.856C323.922,235.316,325.166,234.979,326.574,235.832Z" transform="translate(-222.919 -170.671)"/>
    <path id="Caminho_508" data-name="Caminho 508" class="cls-22" d="M315.8,337.752s-5.745-.3-6.833,4.6,2.358,11.914,2.358,11.914Z" transform="translate(-225.391 -242.355)"/>
    <path id="Caminho_509" data-name="Caminho 509" class="cls-19" d="M315.8,337.752s-5.745-.3-6.833,4.6,2.358,11.914,2.358,11.914Z" transform="translate(-225.391 -242.355)"/>
    <path id="Caminho_510" data-name="Caminho 510" class="cls-22" d="M320,324.663l2.177,1.724,10.16.454,6.343-4.355,6.451-11.07A7.976,7.976,0,0,1,339,305.139a13.744,13.744,0,0,1-.126-5.244s-10.344-5.355-9.073,3a11.349,11.349,0,0,1,.1,3.105c-.6,4.9-5.352,3.974-5.352,3.974l-1.823,2.811-2.087,6.908Z" transform="translate(-233.259 -214.689)"/>
    <path id="Caminho_511" data-name="Caminho 511" class="cls-6" d="M352.408,302.881a11.352,11.352,0,0,1,.1,3.106,9.169,9.169,0,0,0,9.1-.853,13.744,13.744,0,0,1-.126-5.244S351.138,294.535,352.408,302.881Z" transform="translate(-255.858 -214.684)"/>
    <circle id="Elipse_58" data-name="Elipse 58" class="cls-22" cx="9.163" cy="9.163" r="9.163" transform="translate(91.294 73.441)"/>
    <path id="Caminho_512" data-name="Caminho 512" class="cls-7" d="M321.993,349.947c.222,0,.441.033.661.054,1.2.12,6.22.39,9.079-3.024,3.2-3.82,7.457-8.539,7.632-8.731l4.334,1.309s-3.43-1.219-5.706,5.16a6.608,6.608,0,0,0,2.232,7.6,6.865,6.865,0,0,0,2.835,1.2.015.015,0,0,1,0,.015v2.8h0l-1.772,7.809a13.537,13.537,0,0,0,.168,6.683l2.7,9.554c-.408.282-17.179,11.689-28.382,3.811h0c.042-.342,1.427-11.554.466-17.041a37.9,37.9,0,0,1-.5-4.241c0-.036,0-.069,0-.105a4.781,4.781,0,0,0-1.643-3.244c-1.009-.9-2.376-3.3-1.024-9.653a23.322,23.322,0,0,1,1.5-4.574l3.757-8.491h0l3.463.069v.024c-.3.372-4.316,5.388-4.751,8.62C316.617,348.625,316.091,349.568,321.993,349.947Z" transform="translate(-228.017 -241.72)"/>
    <path id="Caminho_513" data-name="Caminho 513" class="cls-22" d="M386.9,347.047s3.388,2.9,4.718,9.5,4.295,17.543,4.295,17.543a11.192,11.192,0,0,1-2.9,9.5c-4.106,4.718-6.836,8.409-6.836,8.409l-2.7,3.983a3.39,3.39,0,0,1-1.946,1.375,6.574,6.574,0,0,1-4.763-.339,2.775,2.775,0,0,1-1.2-3.5l.6-1.391s-5.565,3.508-6.049,1.571,6.472-3.871,6.472-3.871,5.745-.967,6.908-3.688c0,0,6.169-7.926,5.685-10.647l-5.959-15.969s-7.451-.985-4.911-9.356S386.9,347.047,386.9,347.047Z" transform="translate(-268.305 -247.72)"/>
    <path id="Caminho_514" data-name="Caminho 514" class="cls-17" d="M307.321,499.031s13.611,2.721,16.819,2.358l.345,1.15s5.166,1.156,16.846-.7q1.144-.18,2.376-.405l.273-.048s.159-.865.285-2.34a40.575,40.575,0,0,0-1.979-16.471l-1.964-6.049s-12.14,7.277-20.177,6.607c-.718-.06-1.43-.117-2.147-.141-1.649-.063-4.2,0-5.866-1.331l-3.484.6v9.911a11.875,11.875,0,0,1-.787,4.241c-.075.2-.153.393-.24.6A3.154,3.154,0,0,0,307.321,499.031Z" transform="translate(-224.353 -339.456)"/>
    <path id="Caminho_515" data-name="Caminho 515" class="cls-6" d="M364.58,551.915V555s5.947,1.33,19.495-1.15c0,0,.159-.865.285-2.34C380.2,552.177,368.74,553.781,364.58,551.915Z" transform="translate(-264.45 -391.917)"/>
    <path id="Caminho_516" data-name="Caminho 516" class="cls-6" d="M307.325,545.391s13.611,2.721,16.819,2.358l.345,1.15v-3.084c-1.55.643-12.614-2.024-16.624-3.024-.075.2-.153.393-.24.6A3.154,3.154,0,0,0,307.325,545.391Z" transform="translate(-224.356 -385.815)"/>
    <path id="Caminho_517" data-name="Caminho 517" class="cls-17" d="M417.31,535.494l1.009,6.259q1.144-.18,2.376-.405c-.315-1.829-1-6.007-.814-6.7l-1.27-1.087Z" transform="translate(-301.343 -379.358)"/>
    <path id="Caminho_518" data-name="Caminho 518" class="cls-6" d="M417.78,535.044l1.009,6.262q1.144-.183,2.376-.405c-.315-1.829-1-6.007-.814-6.7l-1.27-1.09Z" transform="translate(-301.672 -379.043)"/>
    <g id="Grupo_18" data-name="Grupo 18" class="cls-26" transform="translate(87.194 137.065)">
      <path id="Caminho_519" data-name="Caminho 519" d="M329.379,495.092c-.715-.06-1.43-.117-2.147-.141-1.6-.06-4.052,0-5.721-1.228l.583-.1c1.67,1.324,4.2,1.267,5.866,1.33.718.024,1.43.081,2.147.141.234.021.475.033.718.039a13.471,13.471,0,0,1-1.445-.039Z" transform="translate(-321.51 -488.478)"/>
      <path id="Caminho_520" data-name="Caminho 520" d="M391.4,501.822q1.144-.18,2.376-.4l.276-.051s.159-.865.282-2.34a40.467,40.467,0,0,0-1.979-16.471l-1.85-5.706c.393-.222.6-.351.6-.351l1.964,6.049a40.574,40.574,0,0,1,1.979,16.471c-.126,1.475-.285,2.34-.285,2.34l-.273.051q-1.228.222-2.376.4a74.827,74.827,0,0,1-12.239,1.051A77.187,77.187,0,0,0,391.4,501.822Z" transform="translate(-362.349 -476.5)"/>
      <path id="Caminho_521" data-name="Caminho 521" d="M360.09,559.3v.033h-.39Q359.922,559.318,360.09,559.3Z" transform="translate(-348.23 -534.432)"/>
    </g>
    <ellipse id="Elipse_59" data-name="Elipse 59" class="cls-23" cx="0.514" cy="1.057" rx="0.514" ry="1.057" transform="translate(117.144 155.191)"/>
    <path id="Caminho_522" data-name="Caminho 522" class="cls-22" d="M310.469,442.888c.829-6.157,2.292-9.815,3.063-11.248.03.2.108.829.144,1.024a29.73,29.73,0,0,1,.066,3.181l-.769,13.924,1.03,4.355c.967,3.448-2.616.724-2.616.724a2.133,2.133,0,0,1-2.1,1.454l-.186-2.5a21.582,21.582,0,0,1,.625-7.007,33.389,33.389,0,0,0,.745-3.907Z" transform="translate(-225.59 -308.048)"/>
    <path id="Caminho_523" data-name="Caminho 523" class="cls-19" d="M310.469,442.888c.829-6.157,2.292-9.815,3.063-11.248.03.2.108.829.144,1.024a29.73,29.73,0,0,1,.066,3.181l-.769,13.924,1.03,4.355c.967,3.448-2.616.724-2.616.724a2.133,2.133,0,0,1-2.1,1.454l-.186-2.5a21.582,21.582,0,0,1,.625-7.007,33.389,33.389,0,0,0,.745-3.907Z" transform="translate(-225.59 -308.048)"/>
    <path id="Caminho_524" data-name="Caminho 524" class="cls-22" d="M388.755,479.729c-.652.844-1.009,1.327-1.009,1.327l-2.7,3.979a3.376,3.376,0,0,1-1.946,1.376,6.558,6.558,0,0,1-4.763-.339,2.769,2.769,0,0,1-1.2-3.5l.6-1.394s-5.565,3.508-6.049,1.574,6.472-3.871,6.472-3.871,5.745-.967,6.908-3.691c0,0,.5-.643,1.2-1.628" transform="translate(-269.404 -337.378)"/>
    <path id="Caminho_525" data-name="Caminho 525" class="cls-17" d="M394.9,506.053s-6.58-.64-8.665-4.4l-.955,3.108s6.908,4.769,8.485,4.151Z" transform="translate(-278.933 -357.031)"/>
    <path id="Caminho_526" data-name="Caminho 526" class="cls-6" d="M394.127,505.946s-6.577-.64-8.665-4.406l-.952,3.1s6.908,4.769,8.482,4.151Z" transform="translate(-278.395 -356.954)"/>
    <path id="Caminho_527" data-name="Caminho 527" class="cls-17" d="M311.157,510.46s-2.3.817-2.757.363l1.036,1.907,1.958-1.5Z" transform="translate(-225.143 -363.195)"/>
    <path id="Caminho_528" data-name="Caminho 528" class="cls-6" d="M311.157,510.46s-2.3.817-2.757.363l1.036,1.907,1.958-1.5Z" transform="translate(-225.143 -363.195)"/>
    <path id="Caminho_529" data-name="Caminho 529" class="cls-6" d="M331.216,523.449V519.47l-.946,4.076Z" transform="translate(-231.086 -363.451)"/>
    <path id="Caminho_530" data-name="Caminho 530" class="cls-6" d="M347.224,258.984a3.534,3.534,0,0,1-2.469,1.3,19.455,19.455,0,0,1-2.868,0,7.193,7.193,0,0,0-4.328,1.09,11,11,0,0,0-1.985,2.1c-1.856,2.268-4.433,4.391-7.358,4.154a1.907,1.907,0,0,1-1.367-.577,2.193,2.193,0,0,1-.348-1.243,28.427,28.427,0,0,1,.177-5.6,11.813,11.813,0,0,1,.847-3.343,11.413,11.413,0,0,1,2.036-2.907,12.455,12.455,0,0,1,3.553-2.847,6.373,6.373,0,0,1,4.445-.574c1.751.478,3.114,1.847,4.784,2.553C344.251,253.891,349.314,256.032,347.224,258.984Z" transform="translate(-237.763 -181.218)"/>
    <path id="Caminho_531" data-name="Caminho 531" class="cls-25" d="M347.224,257.767a3.534,3.534,0,0,1-2.469,1.3,19.447,19.447,0,0,1-2.868,0,7.171,7.171,0,0,0-4.328,1.087,11,11,0,0,0-1.985,2.1c-1.856,2.268-4.433,4.391-7.358,4.154a1.9,1.9,0,0,1-1.367-.577,2.184,2.184,0,0,1-.348-1.243,28.424,28.424,0,0,1,.177-5.6,11.815,11.815,0,0,1,.847-3.343,11.335,11.335,0,0,1,2.036-2.9,12.413,12.413,0,0,1,3.553-2.85,6.373,6.373,0,0,1,4.445-.574c1.751.478,3.115,1.847,4.784,2.553C344.251,252.674,349.314,254.809,347.224,257.767Z" transform="translate(-237.763 -180.364)"/>
    <path id="Caminho_532" data-name="Caminho 532" class="cls-22" d="M291.67,473.47l-.024,1.1-.246-1.048Z" transform="translate(-203.89 -331.266)"/>
    <path id="Caminho_533" data-name="Caminho 533" class="cls-19" d="M291.67,473.47l-.024,1.1-.246-1.048Z" transform="translate(-203.89 -331.266)"/>
    <g id="Grupo_19" data-name="Grupo 19" class="cls-26" transform="translate(109.321 97.952)">
      <path id="Caminho_534" data-name="Caminho 534" d="M396.8,350.18c-2.544,8.37,4.871,9.353,4.871,9.353l5.959,15.969c.484,2.721-5.688,10.647-5.688,10.647a5.279,5.279,0,0,1-2.673,2.358,4.187,4.187,0,0,0,1.586-1.742s6.169-7.923,5.685-10.644l-5.959-15.972s-7.412-.982-4.871-9.353c.85-2.8,2.1-4.07,3.37-4.526A7.711,7.711,0,0,0,396.8,350.18Z" transform="translate(-395.184 -346.27)"/>
    </g>
    <g id="Grupo_20" data-name="Grupo 20" class="cls-14" transform="translate(84.511 95.117)">
      <path id="Caminho_535" data-name="Caminho 535" d="M401,384.61a6.259,6.259,0,0,0,1.2,1.138,6.826,6.826,0,0,0,2.835,1.2v.315a6.8,6.8,0,0,1-2.571-1.138A6.231,6.231,0,0,1,401,384.61Z" transform="translate(-374.443 -370.26)"/>
      <path id="Caminho_536" data-name="Caminho 536" d="M321.782,418.344v.105a38.792,38.792,0,0,0,.517,4.256c.9,5.178-.279,15.458-.448,16.879-.1-.063-.192-.123-.3-.192.045-.342,1.43-11.554.469-17.038a38.056,38.056,0,0,1-.5-4.241v-.105a4.634,4.634,0,0,0-.808-2.3,4.67,4.67,0,0,1,1.072,2.634Z" transform="translate(-318.267 -392.019)"/>
      <path id="Caminho_537" data-name="Caminho 537" d="M321.621,337.241l-2.937-.057a.015.015,0,0,0-.015,0l-3.754,8.488a23.4,23.4,0,0,0-1.5,4.574c-1.093,5.136-.405,7.695.43,8.959-.94-1.108-1.91-3.634-.7-9.311a23.153,23.153,0,0,1,1.487-4.577l3.781-8.488h0l3.463.069v.021C321.847,336.956,321.754,337.07,321.621,337.241Z" transform="translate(-312.577 -336.83)"/>
      <path id="Caminho_538" data-name="Caminho 538" d="M416.39,345.87l.051.015Z" transform="translate(-385.211 -343.155)"/>
      <path id="Caminho_539" data-name="Caminho 539" d="M353.784,342.8l-2.943-.886h-.015c-.174.192-4.43,4.911-7.629,8.731-2.859,3.415-7.872,3.148-9.079,3.027-.219-.024-.441-.042-.661-.057-3.283-.21-4.574-.6-5.007-1.43.616.6,1.97.9,4.733,1.069.222,0,.441.033.661.054,1.2.12,6.22.387,9.079-3.024,3.2-3.823,7.457-8.542,7.632-8.734h0l4.283,1.3a2.675,2.675,0,0,0-1.054-.048Z" transform="translate(-323.683 -340.132)"/>
    </g>
    <path id="Caminho_540" data-name="Caminho 540" class="cls-6" d="M285.247,776.126s-4.145,1.132-4.947-.646" transform="translate(-205.483 -548.62)"/>
    <path id="Caminho_541" data-name="Caminho 541" class="cls-6" d="M370.6,773.219s-4.805,1.24-5.917-.679" transform="translate(-264.52 -546.563)"/>
    <path id="Caminho_542" data-name="Caminho 542" class="cls-27" d="M539.424,746.218c.069-.6.168-1.2.276-1.8a12.561,12.561,0,0,0-.6-6.091h0c-.111-.315-.192-.493-.192-.493-1.913-.523-9.455,5.328-12.2,7.532-.952,0-1.985.042-3.115.117-.493.036-.985.048-1.478.039h-1.8c-2.55-2.054-10.443-8.232-12.407-7.7,0,0-.081.177-.192.493h0a12.341,12.341,0,0,0-.616,6.091c.108.6.207,1.2.276,1.8a8.623,8.623,0,0,0,2.7,5.559,36.437,36.437,0,0,0,3.274,9.722,6.967,6.967,0,0,0,.421,1.373c-.511,1.97-1.1,4.541-.931,5.406,0,0-2.667-.646-2.937,2.565v.1c-.964.442-2.168,1.454-.814,3.574a1.39,1.39,0,0,0,.7.568c.24.084.475.084.451-.252L511.9,776.7s3.021.348,3.057-1.406l.177.027c.405.06.829.111,1.264.156l.21.694s-2.268-.048-1.649,1.349c0,0,.571.529.766.336,0,0-.3.916.883.916,0,0,1.27.673,1.766.192s1.523-1.2,1.619-1.5c.027-.081.039-.793.045-1.778h.2c2.532.06,5.22-.021,7.665-.153h.2c0,1.066.015,1.853.042,1.937.1.3,1.129,1.012,1.622,1.5s1.763-.192,1.763-.192c1.177,0,.883-.916.883-.916.2.192.769-.336.769-.336.619-1.4-1.652-1.349-1.652-1.349l.27-.9,1.252-.105.2-.018c-.12,1.907,3.054,1.541,3.054,1.541l1.67-1.877c-.027.336.207.336.448.252a1.378,1.378,0,0,0,.676-.574c2.045-3.2-1.733-3.877-1.733-3.877a1.864,1.864,0,0,0-.357-.057.615.615,0,0,1,.015-.165h0a6.593,6.593,0,0,0,.024-1.267,2.788,2.788,0,0,0-2.25-1.637c-.769-.1-.784-3.628-.706-6.076a6.988,6.988,0,0,0,.12-1.394,7.354,7.354,0,0,0-.3-2.232,28.619,28.619,0,0,0,2.838-6.007A8.739,8.739,0,0,0,539.424,746.218Z" transform="translate(-364.054 -522.25)"/>
    <path id="Caminho_543" data-name="Caminho 543" class="cls-7" d="M544.452,821.229h0c-.12,1.664-.442,4.334-.442,4.334s-1.336.162-3.4.348l-1.4.12c-1.075.087-2.283.171-3.559.243-2.358.129-4.947.21-7.388.15-1.219-.027-2.4-.09-3.5-.2-.49-.048-.964-.105-1.415-.171-2.8-.417-4.805-1.216-4.977-2.619a8.109,8.109,0,0,1-.063-1.8c.261-3.153,2.829-2.517,2.829-2.517-.165-.871.456-3.577.961-5.535.318-1.234.6-2.171.6-2.171l18.056-1.2h.06a.883.883,0,0,1,.883.928c-.108,2.165-.261,7.124.625,7.235a2.722,2.722,0,0,1,2.171,1.607A6.747,6.747,0,0,1,544.452,821.229Z" transform="translate(-371.989 -572.919)"/>
    <path id="Caminho_544" data-name="Caminho 544" class="cls-7" d="M522.521,748.591s-6.809,8.2-10.088,5.926c-.078-.054-.153-.108-.225-.165a8.354,8.354,0,0,1-2.937-5.727c-.066-.6-.162-1.18-.267-1.766a12.263,12.263,0,0,1,.6-5.98h0c.108-.3.183-.484.183-.484C512.055,739.764,522.521,748.591,522.521,748.591Z" transform="translate(-365.393 -524.049)"/>
    <path id="Caminho_545" data-name="Caminho 545" class="cls-7" d="M518.828,750.55s-2.144,1.5-5.169,3.97a10.92,10.92,0,0,1-1.5,1.033,8.354,8.354,0,0,1-2.937-5.727c-.066-.6-.162-1.18-.267-1.766a12.263,12.263,0,0,1,.6-5.98h0C513.795,742.374,518.828,750.55,518.828,750.55Z" transform="translate(-365.358 -525.251)"/>
    <path id="Caminho_546" data-name="Caminho 546" class="cls-28" d="M518.828,750.55s-2.144,1.5-5.169,3.97a10.92,10.92,0,0,1-1.5,1.033,8.354,8.354,0,0,1-2.937-5.727c-.066-.6-.162-1.18-.267-1.766a12.263,12.263,0,0,1,.6-5.98h0C513.795,742.374,518.828,750.55,518.828,750.55Z" transform="translate(-365.358 -525.251)"/>
    <path id="Caminho_547" data-name="Caminho 547" class="cls-6" d="M522,757.06s-1.144.808-2.76,2.12a5.811,5.811,0,0,1-.793.55,4.421,4.421,0,0,1-1.568-3.054c-.033-.318-.084-.631-.141-.946a6.566,6.566,0,0,1,.333-3.19h0C519.312,752.7,522,757.06,522,757.06Z" transform="translate(-370.86 -532.569)"/>
    <path id="Caminho_548" data-name="Caminho 548" class="cls-7" d="M569.05,748.591s6.809,8.2,10.088,5.926c.075-.054.153-.108.225-.165a8.354,8.354,0,0,0,2.937-5.727c.066-.6.162-1.18.264-1.766a12.227,12.227,0,0,0-.6-5.98h0c-.108-.3-.186-.484-.186-.484C579.517,739.764,569.05,748.591,569.05,748.591Z" transform="translate(-407.51 -524.049)"/>
    <path id="Caminho_549" data-name="Caminho 549" class="cls-7" d="M581.22,750.55s2.147,1.5,5.172,3.97a10.926,10.926,0,0,0,1.487,1.033,8.354,8.354,0,0,0,2.937-5.727c.066-.6.162-1.18.264-1.766a12.227,12.227,0,0,0-.6-5.98h0C586.26,742.374,581.22,750.55,581.22,750.55Z" transform="translate(-416.025 -525.251)"/>
    <path id="Caminho_550" data-name="Caminho 550" class="cls-28" d="M581.22,750.55s2.147,1.5,5.172,3.97a10.926,10.926,0,0,0,1.487,1.033,8.354,8.354,0,0,0,2.937-5.727c.066-.6.162-1.18.264-1.766a12.227,12.227,0,0,0-.6-5.98h0C586.26,742.374,581.22,750.55,581.22,750.55Z" transform="translate(-416.025 -525.251)"/>
    <path id="Caminho_551" data-name="Caminho 551" class="cls-6" d="M589.05,757.089s1.138.8,2.742,2.1a5.5,5.5,0,0,0,.79.547,4.436,4.436,0,0,0,1.559-3.036c.033-.3.084-.628.141-.94a6.578,6.578,0,0,0-.315-3.172h0C591.72,752.752,589.05,757.089,589.05,757.089Z" transform="translate(-421.503 -532.604)"/>
    <path id="Caminho_552" data-name="Caminho 552" class="cls-6" d="M549.639,810.23a16.31,16.31,0,0,1-2.607,3.322c-2.7,2.4-14.374,1.448-15.131,1.324-.159-.027-.49-.5-.9-1.264.318-1.234.6-2.171.6-2.171Z" transform="translate(-380.888 -572.933)"/>
    <path id="Caminho_553" data-name="Caminho 553" class="cls-7" d="M531.705,765.195c-.475.033-.949.045-1.427.036-2.436-.042-10.641.066-11.551,3.379-1.072,3.9,3.721,14.359,4.475,14.485s12.422,1.072,15.134-1.324,6.241-9.911,6.052-10.593C544.388,771.177,547.752,764.083,531.705,765.195Z" transform="translate(-372.192 -541.341)"/>
    <path id="Caminho_554" data-name="Caminho 554" class="cls-6" d="M539.163,786.427a8.616,8.616,0,0,0-8.824,4.986,7.208,7.208,0,0,0,.532,7.265c.937,1.318,2.313,2.3,4.226,1.5C539.349,798.429,539.163,786.427,539.163,786.427Z" transform="translate(-379.909 -556.242)"/>
    <path id="Caminho_555" data-name="Caminho 555" class="cls-6" d="M538.533,785.167a8.616,8.616,0,0,0-8.824,4.986,7.208,7.208,0,0,0,.532,7.265c.937,1.318,2.313,2.3,4.226,1.5C538.719,797.169,538.533,785.167,538.533,785.167Z" transform="translate(-379.468 -555.361)"/>
    <path id="Caminho_556" data-name="Caminho 556" class="cls-7" d="M538.533,785.8a8.616,8.616,0,0,0-8.824,4.986,7.208,7.208,0,0,0,.532,7.265c.937,1.319,2.313,2.3,4.226,1.5C538.719,797.8,538.533,785.8,538.533,785.8Z" transform="translate(-379.468 -555.802)"/>
    <path id="Caminho_557" data-name="Caminho 557" class="cls-28" d="M538.533,785.8a8.616,8.616,0,0,0-8.824,4.986,7.208,7.208,0,0,0,.532,7.265c.937,1.319,2.313,2.3,4.226,1.5C538.719,797.8,538.533,785.8,538.533,785.8Z" transform="translate(-379.468 -555.802)"/>
    <path id="Caminho_558" data-name="Caminho 558" class="cls-29" d="M537.9,803.13s-.82.757-.5.946S537.9,803.13,537.9,803.13Z" transform="translate(-385.309 -567.965)"/>
    <path id="Caminho_559" data-name="Caminho 559" class="cls-29" d="M541.613,806.35s-.447.988-.129,1.1.508-.709.508-.709Z" transform="translate(-388.143 -570.218)"/>
    <path id="Caminho_560" data-name="Caminho 560" class="cls-29" d="M535.136,811.32s-.439,1.165,0,1.165S535.136,811.32,535.136,811.32Z" transform="translate(-383.645 -573.696)"/>
    <path id="Caminho_561" data-name="Caminho 561" class="cls-30" d="M533.78,821.71a3.321,3.321,0,0,0,3.16,2.081" transform="translate(-382.833 -580.965)"/>
    <path id="Caminho_562" data-name="Caminho 562" class="cls-30" d="M540.61,823.91a1.58,1.58,0,0,0,1.889.252" transform="translate(-387.612 -582.504)"/>
    <path id="Caminho_563" data-name="Caminho 563" class="cls-6" d="M564,786.427a8.616,8.616,0,0,1,8.824,4.986,7.208,7.208,0,0,1-.532,7.265c-.934,1.318-2.313,2.3-4.226,1.5C563.8,798.429,564,786.427,564,786.427Z" transform="translate(-403.973 -556.242)"/>
    <path id="Caminho_564" data-name="Caminho 564" class="cls-6" d="M564.588,785.167a8.616,8.616,0,0,1,8.824,4.986,7.208,7.208,0,0,1-.532,7.265c-.934,1.318-2.312,2.3-4.226,1.5C564.41,797.169,564.588,785.167,564.588,785.167Z" transform="translate(-404.387 -555.361)"/>
    <path id="Caminho_565" data-name="Caminho 565" class="cls-7" d="M564.588,785.8a8.616,8.616,0,0,1,8.824,4.986,7.208,7.208,0,0,1-.532,7.265c-.934,1.319-2.312,2.3-4.226,1.5C564.41,797.8,564.588,785.8,564.588,785.8Z" transform="translate(-404.387 -555.802)"/>
    <path id="Caminho_566" data-name="Caminho 566" class="cls-28" d="M564.588,785.8a8.616,8.616,0,0,1,8.824,4.986,7.208,7.208,0,0,1-.532,7.265c-.934,1.319-2.312,2.3-4.226,1.5C564.41,797.8,564.588,785.8,564.588,785.8Z" transform="translate(-404.387 -555.802)"/>
    <path id="Caminho_567" data-name="Caminho 567" class="cls-29" d="M586.16,803.13s.82.757.5.946S586.16,803.13,586.16,803.13Z" transform="translate(-419.481 -567.965)"/>
    <path id="Caminho_568" data-name="Caminho 568" class="cls-29" d="M582.338,806.35s.448.988.129,1.1-.508-.709-.508-.709Z" transform="translate(-416.543 -570.218)"/>
    <path id="Caminho_569" data-name="Caminho 569" class="cls-29" d="M589.369,811.32s.436,1.165,0,1.165S589.369,811.32,589.369,811.32Z" transform="translate(-421.591 -573.696)"/>
    <path id="Caminho_570" data-name="Caminho 570" class="cls-30" d="M584.26,821.71a3.321,3.321,0,0,1-3.16,2.081" transform="translate(-415.941 -580.965)"/>
    <path id="Caminho_571" data-name="Caminho 571" class="cls-30" d="M580.392,823.91a1.584,1.584,0,0,1-1.892.252" transform="translate(-414.122 -582.504)"/>
    <path id="Caminho_572" data-name="Caminho 572" class="cls-29" d="M553.2,841.523a8.722,8.722,0,0,1,6.241,0Z" transform="translate(-396.42 -594.411)"/>
    <path id="Caminho_573" data-name="Caminho 573" class="cls-6" d="M523.345,851.647c-2.8-.417-4.805-1.216-4.977-2.619a8.11,8.11,0,0,1-.063-1.8,4.043,4.043,0,0,1,1.069-.39,4.8,4.8,0,0,1,2.46.333c1.324.378,1.228,1.937,1.5,3.97a1.679,1.679,0,0,1,.009.508Z" transform="translate(-371.989 -598.501)"/>
    <path id="Caminho_574" data-name="Caminho 574" class="cls-7" d="M516.038,847.491s-3.64.667-1.67,3.808a1.343,1.343,0,0,0,.673.556c.231.081.453.081.43-.249l1.61,1.844s3.214.378,2.931-1.655-.189-3.6-1.5-3.97A4.968,4.968,0,0,0,516.038,847.491Z" transform="translate(-368.842 -598.961)"/>
    <path id="Caminho_575" data-name="Caminho 575" class="cls-30" d="M524.18,854.67s.772,1.763,1.844.282" transform="translate(-376.116 -604.026)"/>
    <path id="Caminho_576" data-name="Caminho 576" class="cls-30" d="M518.28,857s.4,1.67,1.913.427" transform="translate(-371.988 -605.656)"/>
    <path id="Caminho_577" data-name="Caminho 577" class="cls-6" d="M596.444,846.83h0c-.12,1.664-.442,4.334-.442,4.334s-1.336.162-3.4.348a1.749,1.749,0,0,1,0-.348c.282-2.033.189-3.6,1.5-3.971A5.775,5.775,0,0,1,596.444,846.83Z" transform="translate(-423.981 -598.519)"/>
    <path id="Caminho_578" data-name="Caminho 578" class="cls-7" d="M597.229,847.491s3.643.667,1.673,3.808a1.355,1.355,0,0,1-.673.556c-.231.081-.457.081-.432-.249l-1.607,1.844s-3.217.378-2.931-1.655.189-3.6,1.5-3.97A4.965,4.965,0,0,1,597.229,847.491Z" transform="translate(-424.435 -598.961)"/>
    <path id="Caminho_579" data-name="Caminho 579" class="cls-30" d="M599.344,854.67s-.775,1.763-1.844.282" transform="translate(-427.415 -604.026)"/>
    <path id="Caminho_580" data-name="Caminho 580" class="cls-30" d="M605.076,857s-.4,1.67-1.916.427" transform="translate(-431.376 -605.656)"/>
    <path id="Caminho_581" data-name="Caminho 581" class="cls-6" d="M540.578,848.361c-1.219-.027-2.4-.09-3.5-.2l-1.09-3.67a2.383,2.383,0,0,1-.1-.67,2.337,2.337,0,0,1,4.67-.015C540.572,845.238,540.584,847.049,540.578,848.361Z" transform="translate(-384.309 -594.855)"/>
    <path id="Caminho_582" data-name="Caminho 582" class="cls-7" d="M534.642,844.309l1.285,4.331s-2.186-.048-1.589,1.324c0,0,.55.52.739.33,0,0-.285.9.85.9,0,0,1.225.664,1.7.189s1.469-1.183,1.565-1.466c.06-.186.042-3.808.021-6.307a2.331,2.331,0,0,0-2.334-2.313h0a2.333,2.333,0,0,0-2.237,3.009Z" transform="translate(-383.152 -594.671)"/>
    <path id="Caminho_583" data-name="Caminho 583" class="cls-30" d="M539.978,869.47s-.955.9-.451,1.433" transform="translate(-386.751 -614.381)"/>
    <path id="Caminho_584" data-name="Caminho 584" class="cls-30" d="M537.943,867.56a1.3,1.3,0,0,0-.883,1.108" transform="translate(-385.128 -613.044)"/>
    <path id="Caminho_585" data-name="Caminho 585" class="cls-6" d="M580.823,843.636a2.377,2.377,0,0,1-.1.67l-1.018,3.475c-1.075.087-2.283.171-3.559.243,0-1.3,0-3.024.021-4.4a2.334,2.334,0,0,1,4.667.015Z" transform="translate(-412.478 -594.668)"/>
    <path id="Caminho_586" data-name="Caminho 586" class="cls-7" d="M581.312,844.309l-1.285,4.331s2.189-.048,1.592,1.324c0,0-.55.52-.739.33,0,0,.282.9-.853.9,0,0-1.225.664-1.7.189s-1.466-1.183-1.562-1.466c-.06-.186-.042-3.808-.021-6.307a2.331,2.331,0,0,1,2.334-2.313h0a2.334,2.334,0,0,1,2.235,3.009Z" transform="translate(-412.879 -594.671)"/>
    <path id="Caminho_587" data-name="Caminho 587" class="cls-30" d="M586.23,869.47s.955.9.451,1.433" transform="translate(-419.53 -614.381)"/>
    <path id="Caminho_588" data-name="Caminho 588" class="cls-30" d="M587.63,867.56a1.3,1.3,0,0,1,.883,1.108" transform="translate(-420.51 -613.044)"/>
    <path id="Caminho_589" data-name="Caminho 589" class="cls-6" d="M550.124,782.768s-4.448-.141-4.589,3.3,6.95,1.985,6.95,1.985,2.979-.4,2.46-2.493S553.341,782.957,550.124,782.768Z" transform="translate(-391.056 -553.718)"/>
    <path id="Caminho_590" data-name="Caminho 590" class="cls-6" d="M550.124,781.508s-4.448-.141-4.589,3.3,6.95,1.985,6.95,1.985,2.979-.4,2.46-2.493S553.341,781.7,550.124,781.508Z" transform="translate(-391.056 -552.837)"/>
    <path id="Caminho_591" data-name="Caminho 591" class="cls-29" d="M550.124,782.138s-4.448-.141-4.589,3.3,6.95,1.985,6.95,1.985,2.979-.4,2.46-2.493S553.341,782.327,550.124,782.138Z" transform="translate(-391.056 -553.278)"/>
    <path id="Caminho_592" data-name="Caminho 592" class="cls-6" d="M527.78,839.92s1.5.535,1.8,1.559" transform="translate(-378.635 -593.706)"/>
    <path id="Caminho_593" data-name="Caminho 593" class="cls-6" d="M595.962,837.4s-1.066.448-.991,2.316" transform="translate(-425.643 -591.943)"/>
    <ellipse id="Elipse_60" data-name="Elipse 60" class="cls-7" cx="0.696" cy="1.154" rx="0.696" ry="1.154" transform="translate(148.598 253.368) rotate(-29.887)"/>
    <ellipse id="Elipse_61" data-name="Elipse 61" class="cls-7" cx="1.15" cy="0.694" rx="1.15" ry="0.694" transform="translate(169.737 253.639) rotate(-60)"/>
    <ellipse id="Elipse_62" data-name="Elipse 62" class="cls-28" cx="0.696" cy="1.154" rx="0.696" ry="1.154" transform="translate(148.598 253.368) rotate(-29.887)"/>
    <ellipse id="Elipse_63" data-name="Elipse 63" class="cls-28" cx="1.15" cy="0.694" rx="1.15" ry="0.694" transform="translate(169.737 253.639) rotate(-60)"/>
    <ellipse id="Elipse_64" data-name="Elipse 64" class="cls-1" cx="8.088" cy="1.367" rx="8.088" ry="1.367" transform="translate(49.748 213.696)"/>
    <ellipse id="Elipse_65" data-name="Elipse 65" class="cls-1" cx="8.088" cy="1.367" rx="8.088" ry="1.367" transform="translate(17.885 233.077)"/>
    <ellipse id="Elipse_66" data-name="Elipse 66" class="cls-7" cx="12.077" cy="2.042" rx="12.077" ry="2.042" transform="translate(5.475 215.063)"/>
    <path id="Caminho_594" data-name="Caminho 594" class="cls-7" d="M70.227,718.915a3.493,3.493,0,0,1-1.153-1.736,1.548,1.548,0,0,1,.8-1.769,2.26,2.26,0,0,1,2.126.745,2.854,2.854,0,0,0,2.069,1,3.15,3.15,0,0,1-.973-2.949,1.2,1.2,0,0,1,.27-.6c.408-.438,1.153-.249,1.646.1,1.559,1.1,2,3.22,2,5.13a9.461,9.461,0,0,0,.03-2.1,2.163,2.163,0,0,1,.793-1.868,2.4,2.4,0,0,1,1.2-.3,2.513,2.513,0,0,1,1.964.559,1.932,1.932,0,0,1-.078,2.4,7.853,7.853,0,0,1-2.03,1.628,4.48,4.48,0,0,0-1.454,1.385,1.417,1.417,0,0,0-.108.246H72.951A12.145,12.145,0,0,1,70.227,718.915Z" transform="translate(-57.67 -505.15)"/>
    <ellipse id="Elipse_67" data-name="Elipse 67" class="cls-1" cx="8.088" cy="1.367" rx="8.088" ry="1.367" transform="translate(301.2 225.127)"/>
    <path id="Caminho_595" data-name="Caminho 595" class="cls-31" d="M1042.91,747.3s4.613-.141,6.007-1.132,7.094-2.171,7.439-.583,6.935,7.9,1.724,7.938-12.1-.811-13.488-1.658S1042.91,747.3,1042.91,747.3Z" transform="translate(-739.052 -527.162)"/>
    <path id="Caminho_596" data-name="Caminho 596" class="cls-32" d="M1058.17,758.776c-5.208.042-12.1-.811-13.488-1.658-1.057-.643-1.478-2.952-1.619-4.019h-.153s.3,3.721,1.679,4.565,8.28,1.7,13.488,1.658c1.5,0,2.024-.547,1.994-1.34C1059.864,758.476,1059.29,758.776,1058.17,758.776Z" transform="translate(-739.052 -532.961)"/>
  </g>
</svg>
