<svg xmlns="http://www.w3.org/2000/svg" xmlns:xlink="http://www.w3.org/1999/xlink" width="314.659" height="185.88" viewBox="0 0 314.659 185.88">
  <defs>
    <style>
      .cls-1, .cls-3 {
        fill: #ff00d5;
      }

      .cls-1, .cls-5 {
        opacity: 0.2;
      }

      .cls-2, .cls-5 {
        fill: #f5f5f5;
      }

      .cls-4 {
        fill: none;
        stroke: #535461;
        stroke-miterlimit: 10;
        stroke-width: 2px;
      }

      .cls-6 {
        fill: url(#linear-gradient);
      }

      .cls-7 {
        fill: #535461;
      }

      .cls-8 {
        fill: #fff;
      }

      .cls-9 {
        fill: url(#linear-gradient-3);
      }

      .cls-10 {
        fill: url(#linear-gradient-4);
      }

      .cls-11 {
        fill: #f7c4a7;
      }

      .cls-12 {
        opacity: 0.05;
      }

      .cls-13 {
        fill: #575988;
      }

      .cls-14 {
        opacity: 0.1;
      }

      .cls-15 {
        fill: #f3b5b7;
      }

      .cls-16 {
        fill: #dddbe2;
      }

      .cls-17 {
        fill: #fc6681;
      }
    </style>
    <linearGradient id="linear-gradient" x1="0.5" y1="1" x2="0.5" gradientUnits="objectBoundingBox">
      <stop offset="0" stop-color="gray" stop-opacity="0.251"/>
      <stop offset="0.54" stop-color="gray" stop-opacity="0.122"/>
      <stop offset="1" stop-color="gray" stop-opacity="0.102"/>
    </linearGradient>
    <linearGradient id="linear-gradient-3" x1="0.5" y1="1" x2="0.5" y2="0" xlink:href="#linear-gradient"/>
    <linearGradient id="linear-gradient-4" x1="0.5" y1="1" x2="0.5" y2="0" xlink:href="#linear-gradient"/>
  </defs>
  <g id="mobile-ilustration1" transform="translate(0.001 0)">
    <path id="Caminho_306" data-name="Caminho 306" class="cls-1" d="M127.983,144.021a22.679,22.679,0,0,0-7.253.7,12.079,12.079,0,0,0-8.246,13.628c.963,5.428,4.923,10.157,9.033,14.479s8.562,8.6,10.816,13.762c1.124,2.579,1.649,5.467.507,8.043-1.762,3.97-7.074,6.187-12.173,6.649s-10.22-.437-15.338-.738a19.281,19.281,0,0,0-6.378.44,16.879,16.879,0,0,0-5.771,3.268c-6.636,5.279-11.949,12.48-11.089,20.046.972,8.574,9.64,15.35,19.135,18.986,3.144,1.215,6.469,2.181,9.236,3.9,7.289,4.535,8.926,13.039,8.2,20.544s-3.2,15.019-1.822,22.457c1.619,8.653,8.784,16.471,18.448,20.122,8.611,3.253,19.387,3.037,27.032-1.552a32.711,32.711,0,0,0,9-8.574,69.171,69.171,0,0,0,8.945-15.49c1.066-2.579,2.068-5.352,4.556-7.144a15.655,15.655,0,0,1,5.434-2.2c5.868-1.446,12.049-1.841,17.971-3.128s11.882-3.7,15.1-7.979c4.556-6.074,2.43-13.856,2.451-21,.036-16.3,11.879-30.886,16.249-46.774,1.428-5.191,1.959-10.934-1.23-15.566-2.166-3.144-5.819-5.412-9.658-7.165-8.447-3.854-18.047-5.57-27.49-7.241-13.124-2.32-29.06-2.621-39.232-10.129C154.65,149.163,141.3,144.021,127.983,144.021Z" transform="translate(-82 -144)"/>
    <ellipse id="Elipse_33" data-name="Elipse 33" class="cls-2" cx="141.232" cy="37.82" rx="141.232" ry="37.82" transform="translate(32.194 110.24)"/>
    <path id="Caminho_307" data-name="Caminho 307" class="cls-3" d="M1004.171,330.86a25.985,25.985,0,0,0-4.738,27.032c6.144,16.149-10.533,43-10.533,43s.179-.027.51-.085a31.689,31.689,0,0,0,21.03-48.5C1005.82,345.25,1002.027,336.977,1004.171,330.86Z" transform="translate(-713.453 -274.106)"/>
    <path id="Caminho_308" data-name="Caminho 308" class="cls-4" d="M1004.171,330.86s-6.144,13.34,0,24.222,1.054,41.425-15.271,45.814" transform="translate(-713.453 -274.106)"/>
    <path id="Caminho_309" data-name="Caminho 309" class="cls-3" d="M1017.2,475.478s-12.419-1.977-13.549,9.151S979.77,497.3,979.77,497.3l.425.282c18.782,12.328,36.751,7.854,34.017-8.5C1013.219,482.98,1013.3,476.866,1017.2,475.478Z" transform="translate(-707.096 -374.706)"/>
    <path id="Caminho_310" data-name="Caminho 310" class="cls-5" d="M1017.2,475.478s-12.419-1.977-13.549,9.151S979.77,497.3,979.77,497.3l.425.282c18.782,12.328,36.751,7.854,34.017-8.5C1013.219,482.98,1013.3,476.866,1017.2,475.478Z" transform="translate(-707.096 -374.706)"/>
    <path id="Caminho_311" data-name="Caminho 311" class="cls-4" d="M1017.2,475.79s-9.64,2.126-8.847,10.879S994.036,505.941,979.77,497.6" transform="translate(-707.096 -375.017)"/>
    <path id="Caminho_312" data-name="Caminho 312" class="cls-6" d="M540.243,338.578H520.732a6.505,6.505,0,0,0,.68-2.907V246.813a6.533,6.533,0,0,0-6.533-6.533H363.825a6.533,6.533,0,0,0-6.536,6.533v88.861a6.505,6.505,0,0,0,.68,2.907h-20.2a1.728,1.728,0,0,0-1.728,1.728V341.7a9.665,9.665,0,0,0,9.665,9.655h186.6a9.665,9.665,0,0,0,9.665-9.665V340.3a1.728,1.728,0,0,0-1.728-1.722ZM420,344.105l-1.664-1.9h41.525l-1.853,1.9Z" transform="translate(-258.883 -211.037)"/>
    <rect id="Retângulo_89" data-name="Retângulo 89" class="cls-7" width="160.403" height="99.619" rx="23.26" transform="translate(100.262 30.5)"/>
    <rect id="Retângulo_90" data-name="Retângulo 90" class="cls-8" width="153.311" height="81.383" transform="translate(103.636 45.021)"/>
    <circle id="Elipse_34" data-name="Elipse 34" class="cls-8" cx="1.352" cy="1.352" r="1.352" transform="translate(178.942 36.578)"/>
    <path id="Caminho_313" data-name="Caminho 313" class="cls-7" d="M468.2,560.73l-5.27,5.4H425.787l-4.759-5.4H345.419a1.689,1.689,0,0,0-1.689,1.689v1.361a9.446,9.446,0,0,0,9.446,9.446H535.548a9.446,9.446,0,0,0,9.446-9.446v-1.361a1.689,1.689,0,0,0-1.689-1.689Z" transform="translate(-264.237 -434.159)"/>
    <path id="Caminho_314" data-name="Caminho 314" class="cls-6" d="M418.554,301.65H353.882a5.926,5.926,0,0,0-5.932,5.917v89.6a5.926,5.926,0,0,0,5.932,5.917h64.672a5.926,5.926,0,0,0,5.932-5.917v-89.6A5.926,5.926,0,0,0,418.554,301.65Z" transform="translate(-267.175 -253.768)"/>
    <rect id="Retângulo_91" data-name="Retângulo 91" class="cls-7" width="74.716" height="99.318" rx="20" transform="translate(81.683 49.097)"/>
    <rect id="Retângulo_92" data-name="Retângulo 92" class="cls-8" width="67.123" height="80.53" transform="translate(85.479 58.491)"/>
    <circle id="Elipse_35" data-name="Elipse 35" class="cls-8" cx="0.911" cy="0.911" r="0.911" transform="translate(117.826 52.742)"/>
    <circle id="Elipse_36" data-name="Elipse 36" class="cls-8" cx="2.734" cy="2.734" r="2.734" transform="translate(116.004 140.822)"/>
    <path id="Caminho_315" data-name="Caminho 315" class="cls-9" d="M334.446,401.65H301.239a3.283,3.283,0,0,0-3.289,3.277v72.718a3.283,3.283,0,0,0,3.289,3.277h33.206a3.283,3.283,0,0,0,3.289-3.277V404.927A3.283,3.283,0,0,0,334.446,401.65Z" transform="translate(-232.361 -323.395)"/>
    <rect id="Retângulo_93" data-name="Retângulo 93" class="cls-7" width="39.181" height="78.361" rx="11" transform="translate(65.889 78.862)"/>
    <rect id="Retângulo_94" data-name="Retângulo 94" class="cls-8" width="33.41" height="63.782" transform="translate(68.775 86.152)"/>
    <circle id="Elipse_37" data-name="Elipse 37" class="cls-8" cx="0.304" cy="0.304" r="0.304" transform="translate(81.227 82.203)"/>
    <rect id="Retângulo_95" data-name="Retângulo 95" class="cls-8" width="6.682" height="0.607" rx="0.304" transform="translate(83.05 82.203)"/>
    <circle id="Elipse_38" data-name="Elipse 38" class="cls-8" cx="2.126" cy="2.126" r="2.126" transform="translate(83.202 150.845)"/>
    <path id="Caminho_316" data-name="Caminho 316" class="cls-4" d="M282.1,580.209s-4.027-13.668.756-23.733a21.592,21.592,0,0,0,1.756-13.549,36.314,36.314,0,0,0-1.917-6.357" transform="translate(-220.219 -417.337)"/>
    <path id="Caminho_317" data-name="Caminho 317" class="cls-3" d="M283.525,508.667c0,1.677-3.037,6.533-3.037,6.533s-3.037-4.86-3.037-6.533a3.037,3.037,0,1,1,6.074,0Z" transform="translate(-218.088 -395.794)"/>
    <path id="Caminho_318" data-name="Caminho 318" class="cls-3" d="M300.019,535.181c-.911,1.406-6.1,3.836-6.1,3.836s.094-5.728,1.005-7.135a3.037,3.037,0,1,1,5.093,3.3Z" transform="translate(-229.556 -413.025)"/>
    <path id="Caminho_319" data-name="Caminho 319" class="cls-3" d="M296.731,585.366c-1.5.753-7.2.234-7.2.234s2.973-4.9,4.468-5.649a3.037,3.037,0,0,1,2.734,5.418Z" transform="translate(-226.499 -447.354)"/>
    <path id="Caminho_320" data-name="Caminho 320" class="cls-3" d="M287.619,625.437c-1.349,1-7.059,1.446-7.059,1.446s2.1-5.327,3.45-6.324a3.037,3.037,0,0,1,3.608,4.878Z" transform="translate(-220.253 -475.46)"/>
    <path id="Caminho_321" data-name="Caminho 321" class="cls-3" d="M270.558,547.717c1.215,1.166,6.8,2.378,6.8,2.378s-1.37-5.561-2.573-6.728a3.037,3.037,0,1,0-4.228,4.352Z" transform="translate(-212.575 -421.401)"/>
    <path id="Caminho_322" data-name="Caminho 322" class="cls-3" d="M258.354,592.789c1.5.753,7.2.234,7.2.234s-2.973-4.9-4.468-5.649a3.037,3.037,0,1,0-2.734,5.418Z" transform="translate(-203.548 -452.441)"/>
    <path id="Caminho_323" data-name="Caminho 323" class="cls-3" d="M255.894,640.037c1.349,1,7.059,1.446,7.059,1.446s-2.1-5.327-3.45-6.324a3.037,3.037,0,0,0-3.608,4.878Z" transform="translate(-202.303 -485.626)"/>
    <path id="Caminho_324" data-name="Caminho 324" class="cls-10" d="M760.43,431.549c-3.362-4.079-7.435-8.765-6.864-14.193.462-4.395-.644-8.459-.425-12.869.3-6.266-.954-11.171-5.467-15.186-2.636-2.348-7.043-4.191-8.355-3.721-2.6.929-5.437.574-8.113,1.215a8.058,8.058,0,0,0-4.222,2.126c-1.686,1.519-1.713,3.645-.945,5.907a9.977,9.977,0,0,0,4.93,14c-1.874.784-3.493,2.588-4.125,6.251a42.725,42.725,0,0,1-1.983,7.384,12.017,12.017,0,0,1-1.215.489c.091.036.185.061.276.094-.2.076-.392.152-.607.219a6.444,6.444,0,0,0,1.109.322,42.284,42.284,0,0,1-5.467,9.941s-5.664,1.251-7.866-.939c0,0,.358.419.844,1.048-2.153-.893-5.689-2.351-8.711-3.551-2.193-.872-2.755,0-2.734,1.215a4.045,4.045,0,0,0-1.519.51,14.786,14.786,0,0,0-2.032-1.093c-1.257-.3-5.349-2.5-9.44,5-2.381,4.365-8.486,12.331-13.179,18.223-9.127,4.2-21.009,9.513-25.425,10.849h-2.831c-.371-.607-.629-.99-.629-.99l-.219.146-.094-.146s-5.558,3.848-11.2,3.879a10.633,10.633,0,0,1-2.381-.3,22.925,22.925,0,0,0-5.728-.911c-1.546-.027-2.43.34-2.964,1.033h0a2.711,2.711,0,0,0-.2.285h0a3.388,3.388,0,0,0-.164.3h0c-.049.109-.1.225-.14.343a.705.705,0,0,0,.176.592,3.172,3.172,0,0,0,.246.3l.158.17a25.092,25.092,0,0,0,3.614,2.8c.465.3.957.638,1.47.969l.975.607.872.544.349.216.389.237.7.422.413.249.781.465.632.374c1.652.975,3.3,1.92,4.784,2.758l1.039.62.1.055.668.374,1.154.641.793.437.371.2.4.219.079.043.693.377a1,1,0,0,0,.808-.219c.2-.85.69-2.673,1.215-2.812s2.8-4.115,3.441-6.776H654.8a27.076,27.076,0,0,0,3.6-.553c-1.585,1.13-3.156,1.841-4.377,1.537-2.582-.641-5.027.932-5.273,2.484a.4.4,0,0,1-.03.1c-.009.033-.015.064-.021.094s-.018.076-.024.115a.516.516,0,0,0,0,.1v.419a.611.611,0,0,0,.03.125c.012.042,0,.055.021.079a1.528,1.528,0,0,0,.067.161l.015.039a1.634,1.634,0,0,0,.115.191l.049.064a1.279,1.279,0,0,0,.1.125l.07.07c.036.036.076.073.115.109l.085.07.137.1.1.067.164.1.109.058.206.1.1.046c.109.046.225.088.349.128.2.064.431.131.7.2l.264.064.386.088.2.046q.395.085.838.17l.41.076.334.061.768.134c.48.082.981.164,1.519.243l1.324.2,1.725.246.383.052.607.085.89.118.607.079h0l1.576.2.492.061.993.122c1.306.158,2.569.3,3.733.434l1.346.152.68.076.3.03.814.088.453.049.559.058.787.082h.085l.5.052h0a.458.458,0,0,0,.507-.446h0v-.052a.444.444,0,0,0,.073-.237,10.323,10.323,0,0,1,.282-2.223c.033-.125.073-.252.115-.38l.049-.146c.055-.155.109-.3.173-.471a3.364,3.364,0,0,0,.118-.346.429.429,0,0,1,.033-.112c.012-.039.03-.125.043-.188.632-2.16-.131-6.187-.349-7.769a8.438,8.438,0,0,0-.346-1.488.6.6,0,0,0,.118,0,3.582,3.582,0,0,0,.911-.5c4.641-1.655,8.553-3.547,9.789-5.443a8.477,8.477,0,0,1,5.977.626c2.4,1.194,20.577,7.125,29.039,9.865,1.519,1.309,2.709,2.074,3.368,2.017,0,0,10.773,1.743,15.1-1.658.386.267.629.41.629.41s6.293-3.125,7.238-7.192c.3-1.318.58-3.262.863-5.412a7.87,7.87,0,0,0,2.284-5.531c.2-6.828,2.843-14.627,4.8-21.564,2.381.188,3.3-.261,5.485-1.339l-.1-.124C760.157,431.677,760.294,431.616,760.43,431.549Zm-36.079,10.226-1.215-.4a10.023,10.023,0,0,0,1.048-1.743Zm-6.77,2.873,7.289,4.374.064.89a6.381,6.381,0,0,0,.061,2.035c-3.213-2.855-6.974-6.321-7.417-7.3Zm-2.976-6.378c-.8-.328-1.455-.626-1.907-.872.607.043,1.185.079,1.689.106a3.784,3.784,0,0,1,.219.765ZM695.081,445.4s1.257-2.812,4.091,1.877c.44.729,1.251,1.889,2.324,3.326l-8.249-1.1a11.843,11.843,0,0,0,1.835-4.1Z" transform="translate(-458.225 -312.155)"/>
    <path id="Caminho_325" data-name="Caminho 325" class="cls-11" d="M891.785,534.97s-5.771-2.43-10.327-4.252-1.822,4.252-1.822,4.252,7.593,2.126,7.593,2.43,6.378.607,6.378.607Z" transform="translate(-636.808 -413.025)"/>
    <path id="Caminho_326" data-name="Caminho 326" class="cls-12" d="M891.785,534.97s-5.771-2.43-10.327-4.252-1.822,4.252-1.822,4.252,7.593,2.126,7.593,2.43,6.378.607,6.378.607Z" transform="translate(-636.808 -413.025)"/>
    <path id="Caminho_327" data-name="Caminho 327" class="cls-13" d="M939.835,463.278s-10.327-5.467-12.149,5.163a43.4,43.4,0,0,1-7.593,17.92s-5.467,1.215-7.593-.911c0,0,5.163,6.075,2.734,6.682,0,0,5.467,3.948,7.9,2.734s4.252-9.415,5.163-11.542S932.546,462.67,939.835,463.278Z" transform="translate(-660.257 -365.327)"/>
    <path id="Caminho_328" data-name="Caminho 328" class="cls-14" d="M939.835,463.278s-10.327-5.467-12.149,5.163a43.4,43.4,0,0,1-7.593,17.92s-5.467,1.215-7.593-.911c0,0,5.163,6.075,2.734,6.682,0,0,5.467,3.948,7.9,2.734s4.252-9.415,5.163-11.542S932.546,462.67,939.835,463.278Z" transform="translate(-660.257 -365.327)"/>
    <path id="Caminho_329" data-name="Caminho 329" class="cls-11" d="M983.5,436.3s6.378,7.289,6.682,13.364,7.289-6.378,7.9-6.682S992,432.351,991.4,429.01,983.5,436.3,983.5,436.3Z" transform="translate(-709.693 -341.993)"/>
    <path id="Caminho_330" data-name="Caminho 330" class="cls-11" d="M906.774,320.75l-4.024,3.645,1.9,7.669,5.163-4.86-.607-4.86Z" transform="translate(-628.563 -223.33)"/>
    <path id="Caminho_331" data-name="Caminho 331" class="cls-11" d="M623.486,498.5H616.5l2.734,6.682,6.682-1.822Z" transform="translate(-429.254 -347.093)"/>
    <path id="Caminho_332" data-name="Caminho 332" class="cls-14" d="M653.354,639.33s-7.235,5.039-13.416,3.472-7.86-.981-8.58,1.042c-.665,1.862,17.264,11.709,20.122,13.264a.328.328,0,0,0,.477-.213c.194-.826.665-2.6,1.169-2.733.656-.176,3.645-5.771,3.481-7.97S653.354,639.33,653.354,639.33Z" transform="translate(-464.493 -488.886)"/>
    <path id="Caminho_333" data-name="Caminho 333" class="cls-15" d="M652.354,639.33s-7.235,5.039-13.416,3.472-7.86-.981-8.58,1.042c-.665,1.862,17.264,11.709,20.122,13.264a.328.328,0,0,0,.477-.213c.194-.826.665-2.6,1.169-2.733.656-.176,3.645-5.771,3.481-7.97S652.354,639.33,652.354,639.33Z" transform="translate(-463.797 -488.886)"/>
    <path id="Caminho_334" data-name="Caminho 334" class="cls-13" d="M767.9,593.234l-20.35-2.734s-33.106,15.794-37.054,16.1l.911,6.986h6.074c2.43,0,26.12-5.163,29.461-10.327a8.134,8.134,0,0,1,5.771.607c3.037,1.519,32.195,10.934,32.195,10.934Z" transform="translate(-519.61 -454.887)"/>
    <path id="Caminho_335" data-name="Caminho 335" class="cls-14" d="M767.9,593.234l-20.35-2.734s-33.106,15.794-37.054,16.1l.911,6.986h6.074c2.43,0,26.12-5.163,29.461-10.327a8.134,8.134,0,0,1,5.771.607c3.037,1.519,32.195,10.934,32.195,10.934Z" transform="translate(-519.61 -454.887)"/>
    <path id="Caminho_336" data-name="Caminho 336" class="cls-11" d="M690.841,486.5l-3.341,4.252,3.341,1.822,4.86-3.645Z" transform="translate(-478.69 -338.738)"/>
    <path id="Caminho_337" data-name="Caminho 337" class="cls-13" d="M835.726,556.909s-10.934-9.361-11.69-11.059-18.682-13.239-19.9-13.543-5.163-2.43-9.112,4.86S776.5,562.072,776.5,562.072s4.556,6.378,6.074,6.075,18.527-14.579,19.742-21.565c0,0,1.215-2.734,3.948,1.822s20.35,26.424,23.691,26.12c0,0,13.06,2.126,15.794-3.037S835.726,556.909,835.726,556.909Z" transform="translate(-565.564 -414.006)"/>
    <path id="Caminho_338" data-name="Caminho 338" class="cls-16" d="M966.586,466.956s-3.8,1.67-4.1,8.656-6.986,18.831-6.986,18.831l.607,13.971s7.289,7.289,7.9,11.845,5.771,7.593,5.771,7.593,6.074-3.037,6.986-6.986,1.519-13.668,3.037-17.312.607-26.424.607-26.424l-4.556-7.9-2.43-2.734-6.378,7.289S963.549,469.082,966.586,466.956Z" transform="translate(-690.197 -368.549)"/>
    <path id="Caminho_339" data-name="Caminho 339" class="cls-14" d="M956.234,504.811s-.911-10.934,1.822-13.364l5.467-15.49s1.974-7.441,1.67-8.049-7.138,5.923-7.138,5.923l-4.556,16.1,1.215,17.009Z" transform="translate(-688.805 -369.502)"/>
    <path id="Caminho_340" data-name="Caminho 340" class="cls-13" d="M955.234,504.465s-.911-10.934,1.822-13.364l5.467-15.49s2.126-7.593,1.822-8.2-7.289,6.074-7.289,6.074l-4.556,16.1,1.215,17.009Z" transform="translate(-688.108 -369.156)"/>
    <path id="Caminho_341" data-name="Caminho 341" class="cls-11" d="M898.5,546.845s-15.186-4.86-16.1-6.075-10.63-9.112-13.971-3.645,12.453,6.986,12.453,6.986l16.1,9.719Z" transform="translate(-629.254 -416.396)"/>
    <path id="Caminho_342" data-name="Caminho 342" class="cls-14" d="M734.972,642.558l-4.5-.808s-7.362,9.431-11.2,8.474-7.365,3.171-3.314,4.5c3.66,1.2,19.466,2.87,22.476,3.18a.444.444,0,0,0,.489-.431,9.67,9.67,0,0,1,.7-3.423c.811-1.989,0-6.263-.225-7.9a7.844,7.844,0,0,0-.884-2.733Z" transform="translate(-522.162 -490.571)"/>
    <path id="Caminho_343" data-name="Caminho 343" class="cls-15" d="M734.739,643.528l-4.5-.808s-7.362,9.431-11.192,8.477-7.365,3.171-3.314,4.5c3.66,1.2,19.466,2.87,22.476,3.18a.443.443,0,0,0,.489-.431,9.67,9.67,0,0,1,.671-3.42c.811-1.989,0-6.263-.225-7.9a7.847,7.847,0,0,0-.884-2.734Z" transform="translate(-522.004 -491.246)"/>
    <circle id="Elipse_39" data-name="Elipse 39" class="cls-14" cx="9.719" cy="9.719" r="9.719" transform="translate(266.366 78.361)"/>
    <circle id="Elipse_40" data-name="Elipse 40" class="cls-11" cx="9.719" cy="9.719" r="9.719" transform="translate(265.455 78.361)"/>
    <path id="Caminho_344" data-name="Caminho 344" class="cls-13" d="M989.173,465.5s11.542,3.948,11.542,12.149-6.378,21.261-6.682,31.891-17.009,9.112-17.009,9.112-2.43-35.84,0-38.573S990.388,466.715,989.173,465.5Z" transform="translate(-704.432 -367.853)"/>
    <path id="Caminho_345" data-name="Caminho 345" class="cls-14" d="M973.309,503.26s-4.252,18.831-14.275,15.49c0,0-5.163,7.593-1.519,10.934,0,0,8.808,2.126,14.579-3.645s10.023-7.9,10.934-14.883,1.519-16.7-1.519-15.794S973.309,503.26,973.309,503.26Z" transform="translate(-690.693 -388.604)"/>
    <path id="Caminho_346" data-name="Caminho 346" class="cls-13" d="M974.309,502.26s-4.252,18.831-14.275,15.49c0,0-5.163,7.593-1.519,10.934,0,0,8.808,2.126,14.579-3.645s10.023-7.9,10.934-14.883,1.519-16.7-1.519-15.794S974.309,502.26,974.309,502.26Z" transform="translate(-691.39 -387.908)"/>
    <path id="Caminho_347" data-name="Caminho 347" class="cls-16" d="M797.384,680a.278.278,0,0,1-.027.085,8.892,8.892,0,0,0-.477,1.607c.073-.237.158-.48.255-.723A4.4,4.4,0,0,0,797.384,680Z" transform="translate(-579.754 -517.203)"/>
    <path id="Caminho_348" data-name="Caminho 348" class="cls-16" d="M715.958,678.4c-1.251-.41-1.777-1.084-1.8-1.8-.516.99-.191,2.1,1.576,2.679,3.66,1.2,19.469,2.87,22.476,3.18a.443.443,0,0,0,.489-.434h0a.447.447,0,0,0-.4-.453C735,681.22,719.569,679.574,715.958,678.4Z" transform="translate(-522.003 -514.836)"/>
    <path id="Caminho_349" data-name="Caminho 349" class="cls-16" d="M630.8,650.954a3.741,3.741,0,0,1,.3-.644,2.962,2.962,0,0,0-.714,1.178c-.665,1.862,17.264,11.709,20.122,13.264a.328.328,0,0,0,.477-.216h0a.328.328,0,0,0-.161-.364C647.668,662.444,630.143,652.794,630.8,650.954Z" transform="translate(-463.818 -496.531)"/>
    <path id="Caminho_350" data-name="Caminho 350" class="cls-16" d="M702.368,686.034c-.161.043-.319.258-.468.553l.049-.018c.134-.036.361-.3.638-.7a.59.59,0,0,1-.219.164Z" transform="translate(-513.622 -521.291)"/>
    <path id="Caminho_351" data-name="Caminho 351" class="cls-14" d="M961.105,411.832c-.857,1.889-1.036,4.018-1.665,6a13.19,13.19,0,0,1-8.131,8.431c3.156,1.257,6.879-.279,9.318-2.831s3.87-5.947,5.239-9.251c3.541,2.381,3.11,7.854,4.3,12.116a13.437,13.437,0,0,0,7.153,8.55,12.808,12.808,0,0,0,10.955-.222c-3.247-3.948-7.87-9.394-7.32-14.667.446-4.27-2.618-7.532-2.409-11.818.3-6.075-2.023-9.16-6.378-13.06-2.545-2.281,1.461-5.5-1.822-4.556-1.291.371-2.652-1.011-3.918-.556-2.509.911-5.248.559-7.83,1.166C945.181,394.285,962.357,409.074,961.105,411.832Z" transform="translate(-687.28 -315.195)"/>
    <path id="Caminho_352" data-name="Caminho 352" class="cls-17" d="M962.105,410.619c-.856,1.889-1.036,4.018-1.664,6a13.19,13.19,0,0,1-8.131,8.431c3.156,1.257,6.879-.279,9.318-2.831s3.869-5.947,5.239-9.251c3.541,2.381,3.11,7.854,4.3,12.116a13.437,13.437,0,0,0,7.153,8.55,12.808,12.808,0,0,0,10.955-.222c-3.247-3.948-7.566-8.483-7.016-13.756.446-4.27-.219-8.659,0-12.942.3-6.074-2.676-11.942-7.034-15.842-2.545-2.281-6.521-2.573-7.791-2.126-2.509.911-5.248.559-7.83,1.166C946.181,393.073,963.357,407.861,962.105,410.619Z" transform="translate(-687.976 -314.286)"/>
  </g>
</svg>
